<svg xmlns="http://www.w3.org/2000/svg" viewBox="0 0 264.47 316.44"><defs><style>.cls-1{fill:#fff;}.cls-2{fill:#e6f7ff;}.cls-3{fill:#e1f8f9;}</style></defs><title>Action_bg</title><g id="Layer_2" data-name="Layer 2"><g id="Layer_1-2" data-name="Layer 1"><polygon class="cls-1" points="187.1 271.91 189.78 267.26 192.62 262.34 195.38 257.56 198.13 252.79 200.9 247.99 203.72 243.11 206.46 238.34 209.29 233.44 211.98 228.76 214.85 223.79 217.54 219.1 220.33 214.26 223.09 209.46 225.86 204.65 228.57 199.92 231.35 195.1 234.09 190.33 236.87 185.5 239.64 180.7 242.38 175.92 245.14 171.13 247.9 166.33 250.65 161.54 253.4 156.75 250.64 151.97 247.88 147.18 245.12 142.39 242.36 137.61 239.59 132.81 236.82 128.01 234.06 123.23 231.28 118.4 228.54 113.68 225.78 108.88 222.99 104.04 220.2 99.22 217.52 94.58 214.7 89.68 211.94 84.9 209.23 80.21 206.48 75.43 203.7 70.6 200.93 65.8 198.13 60.95 195.38 56.18 192.58 51.33 189.81 46.54 187.06 41.76 184.26 36.91 163.59 1.11 152.51 1.11 175.95 41.71 178.74 46.55 181.5 51.33 184.28 56.13 187.06 60.97 189.83 65.75 192.61 70.59 195.38 75.4 198.17 80.22 200.92 85 203.63 89.7 206.39 94.48 209.2 99.37 211.9 104.03 214.68 108.84 217.47 113.68 220.23 118.47 222.97 123.2 225.75 128.03 228.51 132.81 231.28 137.61 234.04 142.4 236.8 147.19 239.56 151.97 242.32 156.76 239.57 161.55 236.82 166.34 234.06 171.13 231.31 175.92 228.55 180.72 225.78 185.53 223.03 190.32 220.26 195.12 217.54 199.87 214.77 204.67 212.01 209.48 209.22 214.32 206.53 219.01 203.67 223.96 200.97 228.66 198.15 233.55 195.4 238.31 192.59 243.19 189.82 248 187.06 252.77 184.31 257.54 181.47 262.46 178.79 267.11 175.97 272 150.31 316.44 161.4 316.44 184.28 276.8 187.1 271.91"/><polygon class="cls-1" points="126.08 70.5 128.86 75.32 131.63 80.12 134.41 84.92 137.19 89.74 139.96 94.55 142.71 99.32 145.51 104.17 148.28 108.98 151.01 113.73 153.76 118.48 156.53 123.28 159.3 128.1 162.05 132.85 164.82 137.65 167.59 142.44 170.35 147.23 173.11 152.01 175.88 156.81 173.12 161.6 170.36 166.4 167.6 171.18 164.86 175.97 162.1 180.76 159.32 185.58 156.59 190.35 153.8 195.18 151.04 199.97 148.26 204.8 145.52 209.56 142.72 214.42 139.94 219.23 137.19 223.99 134.43 228.78 131.61 233.66 128.91 238.35 126.09 243.24 83.82 316.44 94.9 316.44 134.4 248.03 137.22 243.15 139.92 238.46 142.74 233.58 145.51 228.78 148.25 224.03 151.03 219.21 153.84 214.35 156.58 209.59 159.37 204.75 162.11 199.97 164.91 195.13 167.64 190.37 170.42 185.55 173.17 180.75 175.93 175.97 178.67 171.18 181.44 166.39 184.2 161.59 186.96 156.8 184.19 152.01 181.42 147.21 178.66 142.43 175.9 137.65 173.13 132.85 170.36 128.04 167.62 123.31 164.84 118.49 162.06 113.68 159.33 108.94 156.59 104.19 153.82 99.37 151.03 94.53 148.27 89.75 145.5 84.94 142.72 80.13 139.95 75.33 137.17 70.52 134.39 65.7 97.1 1.11 86.02 1.11 126.08 70.5"/><polygon class="cls-1" points="44.05 5.19 46.85 10.05 92.84 89.69 95.62 94.52 98.38 99.3 101.17 104.12 103.93 108.92 106.7 113.73 109.46 118.51 112.24 123.34 115.01 128.14 117.76 132.9 120.52 137.68 123.28 142.47 126.05 147.26 128.81 152.05 131.57 156.84 128.82 161.63 126.06 166.43 123.3 171.22 120.54 176.02 117.78 180.82 115 185.64 112.25 190.4 109.47 195.23 106.69 200.05 103.94 204.82 101.18 209.6 98.37 214.45 95.64 219.19 92.84 224.04 46.85 303.7 44.06 308.53 41.29 313.32 39.49 316.44 50.57 316.44 52.37 313.33 55.16 308.5 101.16 228.84 103.96 223.98 106.68 219.26 109.5 214.4 112.25 209.61 115 204.85 117.78 200.03 120.57 195.19 123.31 190.43 126.09 185.6 128.85 180.81 131.62 176.01 134.38 171.21 137.14 166.41 139.9 161.62 142.65 156.83 139.89 152.04 137.12 147.25 134.36 142.47 131.6 137.67 128.83 132.88 126.07 128.1 123.33 123.35 120.56 118.55 117.78 113.71 115.02 108.93 112.24 104.12 109.48 99.33 106.69 94.5 103.93 89.72 101.15 84.89 55.17 5.25 52.77 1.11 41.69 1.11 44.05 5.19"/><polygon class="cls-1" points="159.33 51.31 162.11 56.13 164.88 60.93 167.65 65.73 170.44 70.56 173.21 75.35 175.97 80.16 178.76 84.98 181.54 89.81 184.28 94.58 187 99.29 189.77 104.09 192.57 108.94 195.28 113.64 198.06 118.45 200.84 123.27 203.6 128.05 206.35 132.81 209.13 137.62 211.89 142.41 214.65 147.19 217.42 151.99 220.18 156.78 217.43 161.57 214.67 166.36 211.91 171.15 209.15 175.95 206.39 180.75 203.63 185.54 200.89 190.31 198.13 195.1 195.37 199.91 192.59 204.74 189.88 209.46 187.05 214.36 184.33 219.1 181.53 223.97 178.78 228.73 175.97 233.6 173.19 238.41 170.44 243.17 167.68 247.96 164.85 252.86 162.16 257.52 159.34 262.42 128.15 316.44 139.23 316.44 167.66 267.21 170.48 262.32 173.16 257.67 176 252.75 178.75 247.97 181.51 243.21 184.28 238.4 187.09 233.52 189.84 228.76 192.65 223.88 195.36 219.16 198.2 214.24 200.9 209.53 203.69 204.69 206.45 199.89 209.21 195.09 211.95 190.33 214.71 185.54 217.47 180.74 220.23 175.94 222.99 171.14 225.74 166.35 228.5 161.56 231.25 156.77 228.49 151.98 225.73 147.19 222.97 142.4 220.2 137.61 217.44 132.82 214.66 128 211.92 123.26 209.16 118.47 206.37 113.65 203.59 108.83 200.89 104.15 198.09 99.28 195.31 94.49 192.6 89.79 189.85 85.02 187.07 80.19 184.29 75.38 181.52 70.55 178.75 65.76 175.97 60.93 173.19 56.13 170.42 51.34 167.64 46.51 141.43 1.11 130.34 1.11 159.33 51.31"/><polygon class="cls-1" points="1.42 171.27 4.19 166.47 6.96 161.67 9.73 156.87 6.96 152.08 4.19 147.28 1.42 142.48 1.11 141.94 1.11 171.81 1.42 171.27"/><polygon class="cls-1" points="120.59 233.56 123.3 228.86 126.12 223.99 128.88 219.19 131.63 214.44 134.4 209.62 137.2 204.77 139.94 200.01 142.73 195.18 145.49 190.38 148.26 185.57 151.01 180.79 153.78 175.98 156.53 171.19 159.28 166.4 162.04 161.61 164.8 156.81 162.04 152.03 159.27 147.24 156.51 142.44 153.74 137.65 150.99 132.89 148.22 128.08 145.45 123.28 142.7 118.52 139.96 113.77 137.19 108.96 134.4 104.11 131.65 99.34 128.88 94.54 126.1 89.72 123.32 84.92 120.56 80.12 117.77 75.3 74.94 1.11 63.85 1.11 109.46 80.1 112.24 84.92 115.01 89.71 117.79 94.52 120.56 99.33 123.33 104.14 126.08 108.91 128.88 113.75 131.65 118.56 134.39 123.31 137.14 128.08 139.91 132.88 142.67 137.68 145.43 142.45 148.2 147.24 150.96 152.03 153.72 156.82 150.97 161.61 148.21 166.41 145.46 171.2 142.69 176 139.94 180.79 137.17 185.6 134.41 190.39 131.63 195.22 128.89 199.98 126.09 204.82 123.31 209.64 120.57 214.4 117.8 219.19 114.99 224.06 112.28 228.77 109.47 233.64 63.47 313.3 61.66 316.44 72.74 316.44 117.78 238.44 120.59 233.56"/><polygon class="cls-1" points="32.98 308.52 35.76 303.72 38.54 298.91 84.54 219.24 87.33 214.41 90.07 209.65 92.86 204.81 95.63 200.02 98.38 195.25 101.16 190.44 103.94 185.61 106.69 180.84 109.46 176.03 112.22 171.23 114.98 166.44 117.74 161.64 120.5 156.85 117.73 152.06 114.97 147.27 112.2 142.48 109.44 137.69 106.69 132.93 103.93 128.13 101.15 123.3 98.39 118.52 95.62 113.7 92.86 108.92 90.07 104.09 87.31 99.31 84.53 94.49 38.55 14.85 35.74 9.99 33.02 5.29 30.61 1.11 19.52 1.11 21.89 5.2 24.7 10.08 27.43 14.79 30.24 19.65 76.22 99.29 78.99 104.11 81.76 108.89 84.55 113.72 87.3 118.5 90.08 123.32 92.84 128.1 95.62 132.91 98.37 137.71 101.13 142.49 103.89 147.28 106.66 152.07 109.42 156.85 106.67 161.65 103.91 166.45 101.14 171.24 98.37 176.05 95.62 180.83 92.85 185.64 90.07 190.45 87.31 195.23 84.55 200.02 81.76 204.85 79.01 209.62 76.23 214.45 30.23 294.1 27.45 298.92 24.68 303.72 21.91 308.5 19.12 313.32 17.32 316.44 28.41 316.44 30.22 313.31 32.98 308.52"/><polygon class="cls-1" points="20.82 176.06 23.58 171.26 26.35 166.47 29.12 161.67 31.88 156.88 29.12 152.08 26.35 147.28 23.59 142.49 20.81 137.68 18.04 132.88 1.11 103.56 1.11 122.75 9.73 137.68 12.5 142.48 15.27 147.28 18.04 152.08 20.8 156.88 18.04 161.67 15.27 166.47 12.5 171.26 9.73 176.07 1.11 191 1.11 210.19 18.04 180.87 20.82 176.06"/><polygon class="cls-1" points="153.85 252.73 156.54 248.06 159.37 243.17 162.13 238.38 164.88 233.62 167.65 228.81 170.47 223.93 173.21 219.18 176.01 214.31 178.74 209.56 181.56 204.68 184.27 199.95 187.05 195.12 189.81 190.32 192.57 185.53 195.31 180.76 198.07 175.96 200.83 171.16 203.59 166.37 206.35 161.57 209.1 156.78 206.34 152 203.58 147.21 200.81 142.42 198.04 137.61 195.29 132.85 192.53 128.06 189.75 123.24 186.98 118.44 184.25 113.73 181.46 108.89 178.69 104.08 175.97 99.36 173.22 94.6 170.45 89.78 167.66 84.95 164.9 80.15 162.12 75.35 159.34 70.53 156.57 65.73 153.79 60.92 151.01 56.1 119.26 1.11 108.18 1.11 142.7 60.9 145.48 65.72 148.26 70.53 151.03 75.33 153.81 80.15 156.59 84.95 159.34 89.74 162.13 94.58 164.91 99.39 167.65 104.15 170.38 108.88 173.15 113.69 175.94 118.52 178.67 123.24 181.44 128.04 184.22 132.86 186.98 137.64 189.73 142.41 192.5 147.21 195.27 152 198.03 156.79 195.27 161.59 192.51 166.38 189.76 171.17 186.99 175.98 184.25 180.75 181.5 185.53 178.73 190.33 175.95 195.16 173.23 199.91 170.42 204.77 167.69 209.53 164.89 214.39 162.15 219.14 159.34 224.01 156.57 228.82 153.82 233.58 151.06 238.37 148.23 243.26 145.53 247.94 142.72 252.82 105.99 316.44 117.07 316.44 151.03 257.62 153.85 252.73"/><polygon class="cls-1" points="5.29 279.71 51.29 200.05 54.07 195.24 56.83 190.45 59.61 185.63 62.37 180.85 65.14 176.05 67.9 171.26 70.67 166.46 73.43 161.66 76.19 156.87 73.43 152.08 70.67 147.29 67.9 142.48 65.14 137.7 62.37 132.9 59.6 128.1 56.83 123.3 54.06 118.5 51.28 113.69 5.29 34.04 2.51 29.21 1.11 26.79 1.11 45.98 42.97 118.48 45.75 123.3 48.52 128.09 51.29 132.9 54.06 137.69 56.82 142.49 59.59 147.28 62.35 152.08 65.12 156.87 62.35 161.67 59.59 166.46 56.82 171.26 54.06 176.06 51.3 180.84 48.52 185.65 45.76 190.45 42.98 195.25 1.11 267.77 1.11 286.95 2.52 284.51 5.29 279.71"/><polygon class="cls-1" points="1.11 7.61 2.5 10.02 5.28 14.81 8.07 19.66 10.82 24.41 13.61 29.25 59.59 108.89 62.37 113.7 65.14 118.49 67.92 123.31 70.68 128.1 73.45 132.91 76.21 137.69 78.98 142.5 81.75 147.29 84.51 152.08 87.27 156.87 84.51 161.67 81.75 166.46 78.99 171.25 76.22 176.05 73.45 180.85 70.68 185.65 67.92 190.43 65.14 195.24 62.38 200.03 59.6 204.85 13.61 284.51 10.83 289.32 8.05 294.11 5.29 298.91 2.51 303.71 1.11 306.14 1.11 316.44 6.24 316.44 8.04 313.32 10.82 308.52 13.6 303.71 16.36 298.92 19.14 294.12 21.92 289.31 67.91 209.65 70.7 204.82 73.45 200.05 76.23 195.22 79 190.44 81.75 185.65 84.53 180.84 87.3 176.04 90.06 171.25 92.83 166.45 95.59 161.66 98.35 156.86 95.58 152.07 92.82 147.28 90.06 142.5 87.3 137.71 84.52 132.89 81.77 128.12 78.99 123.3 76.23 118.52 73.45 113.69 70.68 108.9 67.9 104.09 21.93 24.45 19.12 19.6 16.39 14.87 13.58 10 10.81 5.21 8.44 1.11 1.11 1.11 1.11 7.61"/><polygon class="cls-1" points="26.35 128.08 29.12 132.88 31.9 137.69 34.66 142.49 37.43 147.28 40.2 152.08 42.96 156.87 40.2 161.67 37.43 166.46 34.67 171.26 31.9 176.06 29.13 180.85 26.36 185.66 1.11 229.39 1.11 248.58 34.67 190.46 37.44 185.65 40.21 180.85 42.98 176.05 45.74 171.26 48.51 166.46 51.27 161.67 54.04 156.87 51.27 152.08 48.51 147.28 45.74 142.49 42.98 137.69 40.21 132.89 37.44 128.09 34.66 123.28 1.11 65.17 1.11 84.36 26.35 128.08"/><polygon class="cls-2" points="184.26 36.91 187.06 41.76 189.81 46.54 192.58 51.33 195.38 56.18 198.13 60.95 200.93 65.8 203.7 70.6 206.48 75.43 209.23 80.21 211.94 84.9 214.7 89.68 217.52 94.58 220.2 99.22 222.99 104.04 225.78 108.88 228.54 113.68 231.28 118.4 234.06 123.23 236.82 128.01 239.59 132.81 242.36 137.61 245.12 142.39 247.88 147.18 250.64 151.97 253.4 156.75 250.65 161.54 247.9 166.33 245.14 171.13 242.38 175.92 239.64 180.7 236.87 185.5 234.09 190.33 231.35 195.1 228.57 199.92 225.86 204.65 223.09 209.46 220.33 214.26 217.54 219.1 214.85 223.79 211.98 228.76 209.29 233.44 206.46 238.34 203.72 243.11 200.9 247.99 198.13 252.79 195.38 257.56 192.62 262.34 189.78 267.26 187.1 271.91 184.28 276.8 161.4 316.44 172.48 316.44 192.6 281.59 195.41 276.71 198.1 272.06 200.94 267.13 203.69 262.36 206.45 257.58 209.21 252.79 212.03 247.9 214.78 243.14 217.61 238.22 220.29 233.56 223.18 228.56 225.85 223.89 228.65 219.04 231.4 214.25 234.18 209.43 236.89 204.71 239.66 199.89 242.41 195.12 245.19 190.29 247.96 185.48 250.7 180.71 253.46 175.91 256.22 171.11 258.97 166.32 261.72 161.53 264.47 156.75 261.71 151.96 258.95 147.18 256.19 142.38 253.43 137.6 250.67 132.81 247.91 128.01 245.14 123.22 242.37 118.43 239.58 113.6 236.86 108.89 234.1 104.09 231.3 99.24 228.51 94.42 225.84 89.8 223.01 84.88 220.25 80.1 217.55 75.42 214.79 70.63 212.01 65.81 209.24 61.01 206.45 56.15 203.69 51.38 200.89 46.53 198.12 41.74 195.37 36.97 192.57 32.11 174.67 1.11 163.59 1.11 184.26 36.91"/><polygon class="cls-3" points="166.53 45.4 169.31 50.23 172.08 55.02 174.86 59.83 177.64 64.65 180.41 69.44 183.19 74.27 185.96 79.08 188.74 83.91 191.49 88.68 194.2 93.38 196.98 98.17 199.78 103.05 202.48 107.72 205.26 112.54 208.05 117.36 210.81 122.15 213.55 126.89 216.33 131.72 219.09 136.5 221.86 141.29 224.62 146.09 227.38 150.87 230.14 155.66 227.39 160.45 224.63 165.24 221.88 170.03 219.12 174.83 216.36 179.63 213.6 184.43 210.84 189.23 208.1 193.98 205.34 198.78 202.58 203.58 199.79 208.42 197.09 213.13 194.25 218.05 191.54 222.78 188.73 227.65 185.98 232.41 183.17 237.29 180.4 242.1 177.65 246.86 174.89 251.64 172.05 256.56 169.37 261.21 166.55 266.1 138.13 315.33 149.21 315.33 174.86 270.89 177.68 266 180.36 261.35 183.21 256.44 185.96 251.66 188.71 246.89 191.48 242.08 194.29 237.21 197.05 232.44 199.86 227.55 202.56 222.85 205.42 217.91 208.11 213.21 210.9 208.37 213.66 203.57 216.43 198.76 219.15 194.01 221.92 189.21 224.67 184.43 227.45 179.61 230.2 174.81 232.95 170.03 235.71 165.23 238.47 160.44 241.22 155.65 238.46 150.87 235.69 146.08 232.94 141.29 230.17 136.5 227.41 131.7 224.64 126.92 221.86 122.09 219.12 117.36 216.36 112.57 213.58 107.74 210.79 102.92 208.09 98.26 205.28 93.37 202.52 88.59 199.81 83.89 197.06 79.11 194.27 74.29 191.5 69.48 188.72 64.65 185.95 59.86 183.17 55.02 180.39 50.23 177.63 45.44 174.84 40.6 151.4 0 140.32 0 166.53 45.4"/><polygon class="cls-2" points="151.01 56.1 153.79 60.92 156.57 65.73 159.34 70.53 162.12 75.35 164.9 80.15 167.66 84.95 170.45 89.78 173.22 94.6 175.97 99.36 178.69 104.08 181.46 108.89 184.25 113.73 186.98 118.44 189.75 123.24 192.53 128.06 195.29 132.85 198.04 137.61 200.81 142.42 203.58 147.21 206.34 152 209.1 156.78 206.35 161.57 203.59 166.37 200.83 171.16 198.07 175.96 195.31 180.76 192.57 185.53 189.81 190.32 187.05 195.12 184.27 199.95 181.56 204.68 178.74 209.56 176.01 214.31 173.21 219.18 170.47 223.93 167.65 228.81 164.88 233.62 162.13 238.38 159.37 243.17 156.54 248.06 153.85 252.73 151.03 257.62 117.07 316.44 128.15 316.44 159.34 262.42 162.16 257.52 164.85 252.86 167.68 247.96 170.44 243.17 173.19 238.41 175.97 233.6 178.78 228.73 181.53 223.97 184.33 219.1 187.05 214.36 189.88 209.46 192.59 204.74 195.37 199.91 198.13 195.1 200.89 190.31 203.63 185.54 206.39 180.75 209.15 175.95 211.91 171.15 214.67 166.36 217.43 161.57 220.18 156.78 217.42 151.99 214.65 147.19 211.89 142.41 209.13 137.62 206.35 132.81 203.6 128.05 200.84 123.27 198.06 118.45 195.28 113.64 192.57 108.94 189.77 104.09 187 99.29 184.28 94.58 181.54 89.81 178.76 84.98 175.97 80.16 173.21 75.35 170.44 70.56 167.65 65.73 164.88 60.93 162.11 56.13 159.33 51.31 130.34 1.11 119.26 1.11 151.01 56.1"/><polygon class="cls-3" points="133.28 64.59 136.07 69.41 138.84 74.22 141.61 79.02 144.39 83.84 147.16 88.64 149.92 93.42 152.71 98.26 155.49 103.08 158.22 107.83 160.96 112.57 163.73 117.38 166.51 122.2 169.25 126.94 172.02 131.74 174.79 136.54 177.55 141.32 180.31 146.1 183.08 150.9 185.85 155.69 183.09 160.48 180.33 165.28 177.57 170.08 174.82 174.86 172.07 179.64 169.31 184.44 166.53 189.26 163.8 194.02 161 198.87 158.26 203.64 155.47 208.49 152.73 213.24 149.92 218.11 147.15 222.92 144.4 227.68 141.64 232.47 138.81 237.35 136.12 242.04 133.29 246.92 93.8 315.33 104.88 315.33 141.61 251.72 144.43 246.83 147.13 242.16 149.95 237.26 152.71 232.47 155.46 227.71 158.23 222.9 161.04 218.03 163.78 213.28 166.58 208.42 169.32 203.66 172.13 198.8 174.84 194.05 177.63 189.23 180.39 184.43 183.14 179.64 185.88 174.87 188.65 170.06 191.41 165.27 194.16 160.48 196.92 155.68 194.16 150.89 191.39 146.1 188.62 141.3 185.87 136.53 183.11 131.75 180.33 126.94 177.56 122.14 174.83 117.41 172.05 112.58 169.27 107.77 166.54 103.05 163.8 98.29 161.02 93.47 158.23 88.63 155.48 83.84 152.7 79.04 149.92 74.22 147.15 69.42 144.37 64.61 141.59 59.79 107.07 0 95.99 0 133.28 64.59"/><polygon class="cls-2" points="117.77 75.3 120.56 80.12 123.32 84.92 126.1 89.72 128.88 94.54 131.65 99.34 134.4 104.11 137.19 108.96 139.96 113.77 142.7 118.52 145.45 123.28 148.22 128.08 150.99 132.89 153.74 137.65 156.51 142.44 159.27 147.24 162.04 152.03 164.8 156.81 162.04 161.61 159.28 166.4 156.53 171.19 153.78 175.98 151.01 180.79 148.26 185.57 145.49 190.38 142.73 195.18 139.94 200.01 137.2 204.77 134.4 209.62 131.63 214.44 128.88 219.19 126.12 223.99 123.3 228.86 120.59 233.56 117.78 238.44 72.74 316.44 83.82 316.44 126.09 243.24 128.91 238.35 131.61 233.66 134.43 228.78 137.19 223.99 139.94 219.23 142.72 214.42 145.52 209.56 148.26 204.8 151.04 199.97 153.8 195.18 156.59 190.35 159.32 185.58 162.1 180.76 164.86 175.97 167.6 171.18 170.36 166.4 173.12 161.6 175.88 156.81 173.11 152.01 170.35 147.23 167.59 142.44 164.82 137.65 162.05 132.85 159.3 128.1 156.53 123.28 153.76 118.48 151.01 113.73 148.28 108.98 145.51 104.17 142.71 99.32 139.96 94.55 137.19 89.74 134.41 84.92 131.63 80.12 128.86 75.32 126.08 70.5 86.02 1.11 74.94 1.11 117.77 75.3"/><polygon class="cls-3" points="54.06 4.14 100.04 83.79 102.82 88.61 105.59 93.39 108.37 98.22 111.14 103.02 113.91 107.82 116.67 112.6 119.45 117.44 122.22 122.24 124.96 127 127.72 131.77 130.49 136.56 133.25 141.36 136.01 146.14 138.78 150.93 141.54 155.72 138.79 160.51 136.03 165.31 133.27 170.1 130.51 174.9 127.75 179.7 124.99 184.5 122.2 189.32 119.46 194.08 116.67 198.92 113.89 203.74 111.15 208.5 108.39 213.29 105.57 218.15 102.86 222.87 100.05 227.74 54.05 307.39 51.26 312.22 49.47 315.33 60.55 315.33 62.37 312.19 108.36 232.53 111.17 227.66 113.88 222.95 116.7 218.08 119.46 213.29 122.2 208.53 124.98 203.72 127.78 198.87 130.52 194.11 133.3 189.28 136.06 184.49 138.83 179.68 141.58 174.89 144.35 170.09 147.11 165.3 149.86 160.51 152.62 155.72 149.85 150.93 147.09 146.13 144.32 141.34 141.57 136.57 138.8 131.77 136.03 126.97 133.28 122.2 130.54 117.45 127.77 112.64 124.98 107.8 122.22 103.03 119.45 98.22 116.68 93.42 113.9 88.6 111.14 83.81 108.35 78.99 62.74 0 51.66 0 54.06 4.14"/><polygon class="cls-2" points="33.02 5.29 35.74 9.99 38.55 14.85 84.53 94.49 87.31 99.31 90.07 104.09 92.86 108.92 95.62 113.7 98.39 118.52 101.15 123.3 103.93 128.13 106.69 132.93 109.44 137.69 112.2 142.48 114.97 147.27 117.73 152.06 120.5 156.85 117.74 161.64 114.98 166.44 112.22 171.23 109.46 176.03 106.69 180.84 103.94 185.61 101.16 190.44 98.38 195.25 95.63 200.02 92.86 204.81 90.07 209.65 87.33 214.41 84.54 219.24 38.54 298.91 35.76 303.72 32.98 308.52 30.22 313.31 28.41 316.44 39.49 316.44 41.29 313.32 44.06 308.53 46.85 303.7 92.84 224.04 95.64 219.19 98.37 214.45 101.18 209.6 103.94 204.82 106.69 200.05 109.47 195.23 112.25 190.4 115 185.64 117.78 180.82 120.54 176.02 123.3 171.22 126.06 166.43 128.82 161.63 131.57 156.84 128.81 152.05 126.05 147.26 123.28 142.47 120.52 137.68 117.76 132.9 115.01 128.14 112.24 123.34 109.46 118.51 106.7 113.73 103.93 108.92 101.17 104.12 98.38 99.3 95.62 94.52 92.84 89.69 46.85 10.05 44.05 5.19 41.69 1.11 30.61 1.11 33.02 5.29"/><polygon class="cls-3" points="9.7 4.1 12.47 8.9 15.28 13.76 18.01 18.49 20.82 23.34 66.8 102.98 69.58 107.8 72.34 112.58 75.12 117.41 77.88 122.19 80.66 127.01 83.41 131.78 86.19 136.6 88.95 141.39 91.71 146.18 94.47 150.97 97.24 155.76 94.48 160.55 91.72 165.35 88.95 170.15 86.2 174.93 83.42 179.74 80.65 184.54 77.89 189.33 75.13 194.12 72.34 198.94 69.59 203.72 66.81 208.54 20.81 288.2 18.03 293.01 15.26 297.81 12.49 302.6 9.71 307.41 6.93 312.21 5.13 315.33 16.21 315.33 18.01 312.21 20.8 307.4 23.57 302.61 26.34 297.81 29.12 293 75.12 213.34 77.9 208.51 80.65 203.74 83.44 198.91 86.2 194.12 88.96 189.34 91.74 184.53 94.51 179.72 97.27 174.94 100.04 170.13 102.8 165.34 105.56 160.54 108.31 155.75 105.55 150.96 102.78 146.17 100.02 141.38 97.27 136.6 94.51 131.81 91.73 126.99 88.97 122.21 86.19 117.39 83.44 112.61 80.65 107.79 77.89 103 75.11 98.18 29.13 18.55 26.32 13.69 23.6 8.97 20.78 4.09 18.42 0 7.33 0 9.7 4.1"/><polygon class="cls-2" points="2.51 29.21 5.29 34.04 51.28 113.69 54.06 118.5 56.83 123.3 59.6 128.1 62.37 132.9 65.14 137.7 67.9 142.48 70.67 147.29 73.43 152.08 76.19 156.87 73.43 161.66 70.67 166.46 67.9 171.26 65.14 176.05 62.37 180.85 59.61 185.63 56.83 190.45 54.07 195.24 51.29 200.05 5.29 279.71 2.52 284.51 1.11 286.95 1.11 306.14 2.51 303.71 5.29 298.91 8.05 294.11 10.83 289.32 13.61 284.51 59.6 204.85 62.38 200.03 65.14 195.24 67.92 190.43 70.68 185.65 73.45 180.85 76.22 176.05 78.99 171.25 81.75 166.46 84.51 161.67 87.27 156.87 84.51 152.08 81.75 147.29 78.98 142.5 76.21 137.69 73.45 132.91 70.68 128.1 67.92 123.31 65.14 118.49 62.37 113.7 59.59 108.89 13.61 29.25 10.82 24.41 8.07 19.66 5.28 14.81 2.5 10.02 1.11 7.61 1.11 26.79 2.51 29.21"/><polygon class="cls-3" points="33.55 122.17 36.33 126.98 39.1 131.78 41.87 136.59 44.64 141.38 47.4 146.18 50.17 150.97 52.93 155.76 50.17 160.56 47.4 165.35 44.63 170.15 41.88 174.94 39.1 179.75 36.33 184.54 33.56 189.35 0 247.47 0 266.66 41.87 194.15 44.65 189.34 47.41 184.54 50.19 179.73 52.95 174.95 55.72 170.15 58.48 165.35 61.24 160.56 64.01 155.76 61.24 150.97 58.48 146.17 55.72 141.38 52.95 136.59 50.18 131.79 47.41 126.98 44.64 122.19 41.87 117.38 0 44.87 0 64.06 33.55 122.17"/><polygon class="cls-2" points="18.04 132.88 20.81 137.68 23.59 142.49 26.35 147.28 29.12 152.08 31.88 156.88 29.12 161.67 26.35 166.47 23.58 171.26 20.82 176.06 18.04 180.87 1.11 210.19 1.11 229.39 26.36 185.66 29.13 180.85 31.9 176.06 34.67 171.26 37.43 166.46 40.2 161.67 42.96 156.87 40.2 152.08 37.43 147.28 34.66 142.49 31.9 137.69 29.12 132.88 26.35 128.08 1.11 84.36 1.11 103.56 18.04 132.88"/><polygon class="cls-3" points="0.31 141.37 3.08 146.17 5.85 150.97 8.62 155.76 5.85 160.56 3.08 165.36 0.31 170.16 0 170.7 0 189.89 8.62 174.96 11.39 170.16 14.16 165.36 16.93 160.56 19.7 155.77 16.93 150.97 14.16 146.18 11.39 141.37 8.62 136.57 0 121.64 0 140.84 0.31 141.37"/></g></g></svg>