<svg xmlns="http://www.w3.org/2000/svg" xmlns:xlink="http://www.w3.org/1999/xlink" viewBox="0 0 572.13 572.13"><defs><style>.cls-1,.cls-5{fill:#b9b4d1;}.cls-1,.cls-11,.cls-7{stroke:#7f7993;}.cls-1,.cls-11,.cls-4,.cls-7{stroke-linecap:round;stroke-linejoin:round;stroke-width:2px;}.cls-2{fill:#7f7993;}.cls-3{fill:#f4ecdf;}.cls-4{fill:#ecf6fd;stroke:#108ee9;}.cls-6{clip-path:url(#clip-path);}.cls-7{fill:none;}.cls-8{clip-path:url(#clip-path-2);}.cls-9{clip-path:url(#clip-path-3);}.cls-10{clip-path:url(#clip-path-4);}.cls-11{fill:#fff;}.cls-12{fill:#2b2838;}.cls-13{fill:#56506c;}</style><clipPath id="clip-path"><polygon class="cls-1" points="195.15 162.69 436.77 190.85 437.46 139.71 196.54 112.55 215.34 139.71 195.15 162.69"/></clipPath><clipPath id="clip-path-2"><polygon class="cls-1" points="151.97 189.15 506.95 205.29 506.99 283.8 151.66 240.32 151.97 189.15"/></clipPath><clipPath id="clip-path-3"><polygon class="cls-1" points="80.95 281.76 436.77 321.2 437.59 372.24 79.92 358.43 80.95 281.76"/></clipPath><clipPath id="clip-path-4"><polygon class="cls-1" points="152.68 372.97 391.5 398.04 371.3 421.01 390.81 450.96 150.11 421.76 152.68 372.97"/></clipPath></defs><title>Icon_createstore</title><g id="Layer_2" data-name="Layer 2"><g id="Layer_1-2" data-name="Layer 1"><path class="cls-2" d="M295.06,554.93a1.15,1.15,0,0,1-1.15-1.15V518.59a1.15,1.15,0,0,1,2.3,0v35.18A1.15,1.15,0,0,1,295.06,554.93Zm0-70.36a1.15,1.15,0,0,1-1.15-1.15V448.24a1.15,1.15,0,1,1,2.3,0v35.18A1.15,1.15,0,0,1,295.06,484.57Zm0-70.36a1.15,1.15,0,0,1-1.15-1.15V377.88a1.15,1.15,0,1,1,2.3,0v35.18A1.15,1.15,0,0,1,295.06,414.21Zm0-70.36a1.15,1.15,0,0,1-1.15-1.15V307.52a1.15,1.15,0,1,1,2.3,0V342.7A1.15,1.15,0,0,1,295.06,343.85Zm0-70.36a1.15,1.15,0,0,1-1.15-1.15V237.16a1.15,1.15,0,1,1,2.3,0v35.18A1.15,1.15,0,0,1,295.06,273.49Zm0-70.36a1.15,1.15,0,0,1-1.15-1.15V166.8a1.15,1.15,0,1,1,2.3,0V202A1.15,1.15,0,0,1,295.06,203.13Zm0-70.36a1.15,1.15,0,0,1-1.15-1.15V96.44a1.15,1.15,0,1,1,2.3,0v35.18A1.15,1.15,0,0,1,295.06,132.77Zm0-70.36a1.15,1.15,0,0,1-1.15-1.15V26.08a1.15,1.15,0,1,1,2.3,0V61.26A1.15,1.15,0,0,1,295.06,62.41Z"/><path class="cls-2" d="M523.72,291.08a1.15,1.15,0,0,1,0-2.3H558.9a1.15,1.15,0,1,1,0,2.3Zm-70.36,0a1.15,1.15,0,0,1,0-2.3h35.18a1.15,1.15,0,0,1,0,2.3Zm-70.36,0a1.15,1.15,0,0,1,0-2.3h35.18a1.15,1.15,0,0,1,0,2.3Zm-70.36,0a1.15,1.15,0,0,1,0-2.3h35.18a1.15,1.15,0,0,1,0,2.3Zm-70.36,0a1.15,1.15,0,0,1,0-2.3h35.18a1.15,1.15,0,0,1,0,2.3Zm-70.36,0a1.15,1.15,0,0,1,0-2.3h35.18a1.15,1.15,0,0,1,0,2.3Zm-70.36,0a1.15,1.15,0,0,1,0-2.3h35.18a1.15,1.15,0,0,1,0,2.3Zm-70.36,0a1.15,1.15,0,0,1,0-2.3H66.39a1.15,1.15,0,0,1,0,2.3Z"/><path class="cls-2" d="M295.06,554.93a1.15,1.15,0,0,1-1.15-1.15V518.59a1.15,1.15,0,0,1,2.3,0v35.18A1.15,1.15,0,0,1,295.06,554.93Zm0-70.36a1.15,1.15,0,0,1-1.15-1.15V448.24a1.15,1.15,0,1,1,2.3,0v35.18A1.15,1.15,0,0,1,295.06,484.57Zm0-70.36a1.15,1.15,0,0,1-1.15-1.15V377.88a1.15,1.15,0,1,1,2.3,0v35.18A1.15,1.15,0,0,1,295.06,414.21Zm0-70.36a1.15,1.15,0,0,1-1.15-1.15V307.52a1.15,1.15,0,1,1,2.3,0V342.7A1.15,1.15,0,0,1,295.06,343.85Zm0-70.36a1.15,1.15,0,0,1-1.15-1.15V237.16a1.15,1.15,0,1,1,2.3,0v35.18A1.15,1.15,0,0,1,295.06,273.49Zm0-70.36a1.15,1.15,0,0,1-1.15-1.15V166.8a1.15,1.15,0,1,1,2.3,0V202A1.15,1.15,0,0,1,295.06,203.13Zm0-70.36a1.15,1.15,0,0,1-1.15-1.15V96.44a1.15,1.15,0,1,1,2.3,0v35.18A1.15,1.15,0,0,1,295.06,132.77Zm0-70.36a1.15,1.15,0,0,1-1.15-1.15V26.08a1.15,1.15,0,1,1,2.3,0V61.26A1.15,1.15,0,0,1,295.06,62.41Z"/><path class="cls-2" d="M523.72,291.08a1.15,1.15,0,0,1,0-2.3H558.9a1.15,1.15,0,1,1,0,2.3Zm-70.36,0a1.15,1.15,0,0,1,0-2.3h35.18a1.15,1.15,0,0,1,0,2.3Zm-70.36,0a1.15,1.15,0,0,1,0-2.3h35.18a1.15,1.15,0,0,1,0,2.3Zm-70.36,0a1.15,1.15,0,0,1,0-2.3h35.18a1.15,1.15,0,0,1,0,2.3Zm-70.36,0a1.15,1.15,0,0,1,0-2.3h35.18a1.15,1.15,0,0,1,0,2.3Zm-70.36,0a1.15,1.15,0,0,1,0-2.3h35.18a1.15,1.15,0,0,1,0,2.3Zm-70.36,0a1.15,1.15,0,0,1,0-2.3h35.18a1.15,1.15,0,0,1,0,2.3Zm-70.36,0a1.15,1.15,0,0,1,0-2.3H66.39a1.15,1.15,0,0,1,0,2.3Z"/><path class="cls-2" d="M481.63,477.65a1.15,1.15,0,0,1-.82-.34l-24.88-24.88a1.15,1.15,0,0,1,0-1.63,1.15,1.15,0,0,1,1.63,0l24.88,24.87a1.16,1.16,0,0,1,0,1.63A1.14,1.14,0,0,1,481.63,477.65ZM431.87,427.9a1.15,1.15,0,0,1-.81-.34l-24.88-24.88a1.15,1.15,0,1,1,1.63-1.63l24.88,24.88a1.15,1.15,0,0,1-.81,2Zm-49.75-49.75a1.15,1.15,0,0,1-.82-.34l-24.87-24.87a1.15,1.15,0,1,1,1.63-1.63l24.88,24.88a1.15,1.15,0,0,1-.81,2Zm-49.75-49.75a1.15,1.15,0,0,1-.81-.34l-24.88-24.88a1.15,1.15,0,0,1,1.63-1.63l24.88,24.88a1.15,1.15,0,0,1-.81,2Zm-49.75-49.75a1.15,1.15,0,0,1-.81-.34l-24.88-24.88a1.15,1.15,0,0,1,.81-2,1.13,1.13,0,0,1,.81.34l24.88,24.88a1.15,1.15,0,0,1-.81,2Zm-49.75-49.75a1.14,1.14,0,0,1-.81-.34l-24.88-24.88a1.15,1.15,0,0,1,1.63-1.63l24.88,24.88a1.15,1.15,0,0,1-.81,2Zm-49.75-49.75a1.14,1.14,0,0,1-.81-.34l-24.88-24.88a1.15,1.15,0,0,1,.81-2,1.14,1.14,0,0,1,.81.34l24.88,24.88a1.15,1.15,0,0,1-.81,2Zm-49.75-49.75a1.15,1.15,0,0,1-.81-.34l-24.88-24.88a1.15,1.15,0,0,1,1.63-1.63l24.88,24.88a1.15,1.15,0,0,1-.81,2Z"/><path class="cls-2" d="M108.49,477.65a1.15,1.15,0,0,1-.81-2l24.87-24.87a1.15,1.15,0,0,1,1.63,0,1.15,1.15,0,0,1,0,1.63L109.3,477.31A1.14,1.14,0,0,1,108.49,477.65Zm49.75-49.75a1.15,1.15,0,0,1-.82-2l24.88-24.88a1.15,1.15,0,1,1,1.63,1.63l-24.88,24.88A1.15,1.15,0,0,1,158.24,427.9ZM208,378.14a1.15,1.15,0,0,1-.82-2l24.88-24.88a1.15,1.15,0,1,1,1.63,1.63l-24.87,24.87A1.14,1.14,0,0,1,208,378.14Zm49.75-49.75a1.15,1.15,0,0,1-.81-2l24.88-24.88a1.15,1.15,0,1,1,1.63,1.63l-24.88,24.88A1.14,1.14,0,0,1,257.74,328.39Zm49.75-49.75a1.15,1.15,0,0,1-.82-2l24.88-24.88a1.15,1.15,0,0,1,.81-.34h0a1.15,1.15,0,0,1,.82,2L308.31,278.3A1.15,1.15,0,0,1,307.5,278.64Zm49.75-49.75a1.15,1.15,0,0,1-.82-2L381.31,202a1.15,1.15,0,1,1,1.63,1.63l-24.88,24.88A1.15,1.15,0,0,1,357.25,228.89ZM407,179.14a1.14,1.14,0,0,1-.81-.34,1.15,1.15,0,0,1,0-1.63l24.88-24.88a1.15,1.15,0,0,1,1.63,1.63L407.81,178.8A1.14,1.14,0,0,1,407,179.14Zm49.75-49.75a1.15,1.15,0,0,1-.81-2l24.88-24.88a1.15,1.15,0,1,1,1.63,1.63l-24.88,24.88A1.15,1.15,0,0,1,456.75,129.39Z"/><path class="cls-2" d="M481.63,477.65a1.15,1.15,0,0,1-.82-.34l-24.88-24.88a1.15,1.15,0,0,1,0-1.63,1.15,1.15,0,0,1,1.63,0l24.88,24.87a1.16,1.16,0,0,1,0,1.63A1.14,1.14,0,0,1,481.63,477.65ZM431.87,427.9a1.15,1.15,0,0,1-.81-.34l-24.88-24.88a1.15,1.15,0,1,1,1.63-1.63l24.88,24.88a1.15,1.15,0,0,1-.81,2Zm-49.75-49.75a1.15,1.15,0,0,1-.82-.34l-24.87-24.87a1.15,1.15,0,1,1,1.63-1.63l24.88,24.88a1.15,1.15,0,0,1-.81,2Zm-49.75-49.75a1.15,1.15,0,0,1-.81-.34l-24.88-24.88a1.15,1.15,0,0,1,1.63-1.63l24.88,24.88a1.15,1.15,0,0,1-.81,2Zm-49.75-49.75a1.15,1.15,0,0,1-.81-.34l-24.88-24.88a1.15,1.15,0,0,1,.81-2,1.13,1.13,0,0,1,.81.34l24.88,24.88a1.15,1.15,0,0,1-.81,2Zm-49.75-49.75a1.14,1.14,0,0,1-.81-.34l-24.88-24.88a1.15,1.15,0,0,1,1.63-1.63l24.88,24.88a1.15,1.15,0,0,1-.81,2Zm-49.75-49.75a1.14,1.14,0,0,1-.81-.34l-24.88-24.88a1.15,1.15,0,0,1,.81-2,1.14,1.14,0,0,1,.81.34l24.88,24.88a1.15,1.15,0,0,1-.81,2Zm-49.75-49.75a1.15,1.15,0,0,1-.81-.34l-24.88-24.88a1.15,1.15,0,0,1,1.63-1.63l24.88,24.88a1.15,1.15,0,0,1-.81,2Z"/><path class="cls-2" d="M108.49,477.65a1.15,1.15,0,0,1-.81-2l24.87-24.87a1.15,1.15,0,0,1,1.63,0,1.15,1.15,0,0,1,0,1.63L109.3,477.31A1.14,1.14,0,0,1,108.49,477.65Zm49.75-49.75a1.15,1.15,0,0,1-.82-2l24.88-24.88a1.15,1.15,0,1,1,1.63,1.63l-24.88,24.88A1.15,1.15,0,0,1,158.24,427.9ZM208,378.14a1.15,1.15,0,0,1-.82-2l24.88-24.88a1.15,1.15,0,1,1,1.63,1.63l-24.87,24.87A1.14,1.14,0,0,1,208,378.14Zm49.75-49.75a1.15,1.15,0,0,1-.81-2l24.88-24.88a1.15,1.15,0,1,1,1.63,1.63l-24.88,24.88A1.14,1.14,0,0,1,257.74,328.39Zm49.75-49.75a1.15,1.15,0,0,1-.82-2l24.88-24.88a1.15,1.15,0,0,1,.81-.34h0a1.15,1.15,0,0,1,.82,2L308.31,278.3A1.15,1.15,0,0,1,307.5,278.64Zm49.75-49.75a1.15,1.15,0,0,1-.82-2L381.31,202a1.15,1.15,0,1,1,1.63,1.63l-24.88,24.88A1.15,1.15,0,0,1,357.25,228.89ZM407,179.14a1.14,1.14,0,0,1-.81-.34,1.15,1.15,0,0,1,0-1.63l24.88-24.88a1.15,1.15,0,0,1,1.63,1.63L407.81,178.8A1.14,1.14,0,0,1,407,179.14Zm49.75-49.75a1.15,1.15,0,0,1-.81-2l24.88-24.88a1.15,1.15,0,1,1,1.63,1.63l-24.88,24.88A1.15,1.15,0,0,1,456.75,129.39Z"/><path class="cls-2" d="M538.82,392a1.15,1.15,0,0,1-.44-.09l-32.5-13.46a1.15,1.15,0,1,1,.88-2.13l32.5,13.46a1.15,1.15,0,0,1,.62,1.5A1.15,1.15,0,0,1,538.82,392Zm-65-26.92a1.14,1.14,0,0,1-.44-.09l-32.5-13.46a1.15,1.15,0,1,1,.88-2.13l32.5,13.46a1.15,1.15,0,0,1-.44,2.22Zm-65-26.92a1.14,1.14,0,0,1-.44-.09l-32.5-13.46a1.15,1.15,0,0,1,.88-2.13L409.25,336a1.15,1.15,0,0,1-.44,2.22Zm-65-26.93a1.15,1.15,0,0,1-.44-.09l-32.5-13.46a1.15,1.15,0,0,1,.44-2.22,1.14,1.14,0,0,1,.44.09l32.5,13.46a1.15,1.15,0,0,1-.44,2.22Zm-65-26.92a1.14,1.14,0,0,1-.44-.09l-32.5-13.46a1.15,1.15,0,1,1,.88-2.13l32.5,13.46a1.15,1.15,0,0,1-.44,2.22Zm-65-26.93a1.14,1.14,0,0,1-.44-.09l-32.5-13.46a1.15,1.15,0,1,1,.88-2.13l32.5,13.46a1.15,1.15,0,0,1-.44,2.22Zm-65-26.92a1.14,1.14,0,0,1-.44-.09l-32.5-13.46a1.15,1.15,0,0,1,.44-2.22,1.18,1.18,0,0,1,.44.09l32.5,13.46a1.15,1.15,0,0,1-.44,2.22Zm-65-26.92a1.15,1.15,0,0,1-.44-.09L50.85,190a1.15,1.15,0,0,1,.44-2.22,1.14,1.14,0,0,1,.44.09l32.5,13.46a1.15,1.15,0,0,1-.44,2.22Z"/><path class="cls-2" d="M194.09,534.84a1.11,1.11,0,0,1-.44-.09,1.15,1.15,0,0,1-.62-1.5l13.46-32.5a1.15,1.15,0,1,1,2.13.88l-13.46,32.5A1.15,1.15,0,0,1,194.09,534.84Zm26.92-65a1.14,1.14,0,0,1-.44-.09,1.15,1.15,0,0,1-.62-1.5l13.46-32.5a1.15,1.15,0,0,1,1.06-.71,1.11,1.11,0,0,1,.44.09,1.15,1.15,0,0,1,.62,1.5l-13.46,32.5A1.15,1.15,0,0,1,221,469.84Zm26.92-65a1.14,1.14,0,0,1-.44-.09,1.16,1.16,0,0,1-.62-1.51l13.46-32.5a1.15,1.15,0,0,1,2.13.88L249,404.12A1.15,1.15,0,0,1,247.94,404.84Zm26.93-65a1.14,1.14,0,0,1-.44-.09,1.15,1.15,0,0,1-.62-1.5l13.46-32.5a1.15,1.15,0,1,1,2.13.88l-13.46,32.5A1.15,1.15,0,0,1,274.86,339.83Zm26.93-65a1.15,1.15,0,0,1-1.06-1.59l13.46-32.5a1.15,1.15,0,0,1,2.13.88l-13.46,32.5A1.15,1.15,0,0,1,301.79,274.83Zm26.93-65a1.15,1.15,0,0,1-1.06-1.59l13.46-32.5a1.15,1.15,0,0,1,1.07-.71,1.13,1.13,0,0,1,.44.09,1.15,1.15,0,0,1,.62,1.51l-13.46,32.5A1.15,1.15,0,0,1,328.71,209.82Zm26.92-65a1.15,1.15,0,0,1-1.06-1.59L368,110.73a1.15,1.15,0,1,1,2.13.88l-13.46,32.5A1.15,1.15,0,0,1,355.64,144.82Zm26.93-65a1.15,1.15,0,0,1-1.06-1.59L395,45.72a1.15,1.15,0,0,1,2.13.88l-13.46,32.5A1.15,1.15,0,0,1,382.56,79.82Z"/><path class="cls-2" d="M538.82,392a1.15,1.15,0,0,1-.44-.09l-32.5-13.46a1.15,1.15,0,1,1,.88-2.13l32.5,13.46a1.15,1.15,0,0,1,.62,1.5A1.15,1.15,0,0,1,538.82,392Zm-65-26.92a1.14,1.14,0,0,1-.44-.09l-32.5-13.46a1.15,1.15,0,1,1,.88-2.13l32.5,13.46a1.15,1.15,0,0,1-.44,2.22Zm-65-26.92a1.14,1.14,0,0,1-.44-.09l-32.5-13.46a1.15,1.15,0,0,1,.88-2.13L409.25,336a1.15,1.15,0,0,1-.44,2.22Zm-65-26.93a1.15,1.15,0,0,1-.44-.09l-32.5-13.46a1.15,1.15,0,0,1,.44-2.22,1.14,1.14,0,0,1,.44.09l32.5,13.46a1.15,1.15,0,0,1-.44,2.22Zm-65-26.92a1.14,1.14,0,0,1-.44-.09l-32.5-13.46a1.15,1.15,0,1,1,.88-2.13l32.5,13.46a1.15,1.15,0,0,1-.44,2.22Zm-65-26.93a1.14,1.14,0,0,1-.44-.09l-32.5-13.46a1.15,1.15,0,1,1,.88-2.13l32.5,13.46a1.15,1.15,0,0,1-.44,2.22Zm-65-26.92a1.14,1.14,0,0,1-.44-.09l-32.5-13.46a1.15,1.15,0,0,1,.44-2.22,1.18,1.18,0,0,1,.44.09l32.5,13.46a1.15,1.15,0,0,1-.44,2.22Zm-65-26.92a1.15,1.15,0,0,1-.44-.09L50.85,190a1.15,1.15,0,0,1,.44-2.22,1.14,1.14,0,0,1,.44.09l32.5,13.46a1.15,1.15,0,0,1-.44,2.22Z"/><path class="cls-2" d="M194.09,534.84a1.11,1.11,0,0,1-.44-.09,1.15,1.15,0,0,1-.62-1.5l13.46-32.5a1.15,1.15,0,1,1,2.13.88l-13.46,32.5A1.15,1.15,0,0,1,194.09,534.84Zm26.92-65a1.14,1.14,0,0,1-.44-.09,1.15,1.15,0,0,1-.62-1.5l13.46-32.5a1.15,1.15,0,0,1,1.06-.71,1.11,1.11,0,0,1,.44.09,1.15,1.15,0,0,1,.62,1.5l-13.46,32.5A1.15,1.15,0,0,1,221,469.84Zm26.92-65a1.14,1.14,0,0,1-.44-.09,1.16,1.16,0,0,1-.62-1.51l13.46-32.5a1.15,1.15,0,0,1,2.13.88L249,404.12A1.15,1.15,0,0,1,247.94,404.84Zm26.93-65a1.14,1.14,0,0,1-.44-.09,1.15,1.15,0,0,1-.62-1.5l13.46-32.5a1.15,1.15,0,1,1,2.13.88l-13.46,32.5A1.15,1.15,0,0,1,274.86,339.83Zm26.93-65a1.15,1.15,0,0,1-1.06-1.59l13.46-32.5a1.15,1.15,0,0,1,2.13.88l-13.46,32.5A1.15,1.15,0,0,1,301.79,274.83Zm26.93-65a1.15,1.15,0,0,1-1.06-1.59l13.46-32.5a1.15,1.15,0,0,1,1.07-.71,1.13,1.13,0,0,1,.44.09,1.15,1.15,0,0,1,.62,1.51l-13.46,32.5A1.15,1.15,0,0,1,328.71,209.82Zm26.92-65a1.15,1.15,0,0,1-1.06-1.59L368,110.73a1.15,1.15,0,1,1,2.13.88l-13.46,32.5A1.15,1.15,0,0,1,355.64,144.82Zm26.93-65a1.15,1.15,0,0,1-1.06-1.59L395,45.72a1.15,1.15,0,0,1,2.13.88l-13.46,32.5A1.15,1.15,0,0,1,382.56,79.82Z"/><path class="cls-2" d="M51.29,392a1.15,1.15,0,0,1-.44-2.21l32.5-13.46a1.15,1.15,0,1,1,.88,2.13L51.73,392A1.14,1.14,0,0,1,51.29,392Zm65-26.92a1.15,1.15,0,0,1-.44-2.22l32.5-13.46a1.17,1.17,0,0,1,.44-.09,1.15,1.15,0,0,1,.44,2.22L116.74,365A1.14,1.14,0,0,1,116.3,365.12Zm65-26.92a1.15,1.15,0,0,1-.44-2.22l32.5-13.46a1.15,1.15,0,0,1,1.5.62,1.15,1.15,0,0,1-.62,1.5l-32.5,13.46A1.14,1.14,0,0,1,181.3,338.2Zm65-26.93a1.15,1.15,0,0,1-.44-2.22l32.5-13.46a1.14,1.14,0,0,1,.44-.09,1.15,1.15,0,0,1,.44,2.22l-32.5,13.46A1.14,1.14,0,0,1,246.3,311.27Zm65-26.92a1.15,1.15,0,0,1-.44-2.22l32.5-13.46a1.15,1.15,0,0,1,1.5.62,1.15,1.15,0,0,1-.62,1.5l-32.5,13.46A1.14,1.14,0,0,1,311.31,284.35Zm65-26.93a1.15,1.15,0,0,1-.44-2.22l32.5-13.46a1.15,1.15,0,0,1,.88,2.13l-32.5,13.46A1.14,1.14,0,0,1,376.31,257.42Zm65-26.92a1.15,1.15,0,0,1-.44-2.22l32.5-13.46a1.16,1.16,0,0,1,.44-.09,1.15,1.15,0,0,1,.44,2.22l-32.5,13.46A1.13,1.13,0,0,1,441.32,230.5Zm65-26.92a1.15,1.15,0,0,1-.44-2.22l32.5-13.46a1.14,1.14,0,0,1,.44-.09,1.15,1.15,0,0,1,.44,2.22l-32.5,13.46A1.14,1.14,0,0,1,506.32,203.57Z"/><path class="cls-2" d="M396,534.84a1.15,1.15,0,0,1-1.06-.71l-13.46-32.5a1.15,1.15,0,0,1,.62-1.51,1.12,1.12,0,0,1,.44-.09,1.15,1.15,0,0,1,1.07.71l13.46,32.5a1.15,1.15,0,0,1-.62,1.5A1.14,1.14,0,0,1,396,534.84Zm-26.92-65a1.15,1.15,0,0,1-1.07-.71l-13.46-32.5a1.15,1.15,0,0,1,1.06-1.59,1.15,1.15,0,0,1,1.06.71l13.46,32.5a1.15,1.15,0,0,1-.62,1.5A1.13,1.13,0,0,1,369.1,469.84Zm-26.93-65a1.15,1.15,0,0,1-1.06-.71l-13.46-32.5a1.15,1.15,0,1,1,2.13-.88l13.46,32.5a1.15,1.15,0,0,1-.62,1.51A1.13,1.13,0,0,1,342.18,404.84Zm-26.92-65a1.15,1.15,0,0,1-1.06-.71l-13.46-32.5a1.15,1.15,0,1,1,2.13-.88l13.46,32.5a1.15,1.15,0,0,1-1.06,1.59Zm-26.93-65a1.15,1.15,0,0,1-1.06-.71l-13.46-32.5a1.15,1.15,0,0,1,.62-1.51,1.15,1.15,0,0,1,1.51.62l13.46,32.5a1.15,1.15,0,0,1-.62,1.5A1.14,1.14,0,0,1,288.33,274.83Zm-26.93-65a1.15,1.15,0,0,1-1.06-.71l-13.46-32.5a1.15,1.15,0,0,1,1.06-1.59,1.15,1.15,0,0,1,1.06.71l13.46,32.5a1.15,1.15,0,0,1-.62,1.5A1.14,1.14,0,0,1,261.4,209.82Zm-26.92-65a1.15,1.15,0,0,1-1.06-.71l-13.46-32.5A1.15,1.15,0,0,1,221,110a1.15,1.15,0,0,1,1.06.71l13.46,32.5a1.16,1.16,0,0,1-1.06,1.59Zm-26.92-65a1.15,1.15,0,0,1-1.06-.71L193,46.6a1.15,1.15,0,1,1,2.13-.88l13.46,32.5a1.15,1.15,0,0,1-1.06,1.59Z"/><path class="cls-2" d="M51.29,392a1.15,1.15,0,0,1-.44-2.21l32.5-13.46a1.15,1.15,0,1,1,.88,2.13L51.73,392A1.14,1.14,0,0,1,51.29,392Zm65-26.92a1.15,1.15,0,0,1-.44-2.22l32.5-13.46a1.17,1.17,0,0,1,.44-.09,1.15,1.15,0,0,1,.44,2.22L116.74,365A1.14,1.14,0,0,1,116.3,365.12Zm65-26.92a1.15,1.15,0,0,1-.44-2.22l32.5-13.46a1.15,1.15,0,0,1,1.5.62,1.15,1.15,0,0,1-.62,1.5l-32.5,13.46A1.14,1.14,0,0,1,181.3,338.2Zm65-26.93a1.15,1.15,0,0,1-.44-2.22l32.5-13.46a1.14,1.14,0,0,1,.44-.09,1.15,1.15,0,0,1,.44,2.22l-32.5,13.46A1.14,1.14,0,0,1,246.3,311.27Zm65-26.92a1.15,1.15,0,0,1-.44-2.22l32.5-13.46a1.15,1.15,0,0,1,1.5.62,1.15,1.15,0,0,1-.62,1.5l-32.5,13.46A1.14,1.14,0,0,1,311.31,284.35Zm65-26.93a1.15,1.15,0,0,1-.44-2.22l32.5-13.46a1.15,1.15,0,0,1,.88,2.13l-32.5,13.46A1.14,1.14,0,0,1,376.31,257.42Zm65-26.92a1.15,1.15,0,0,1-.44-2.22l32.5-13.46a1.16,1.16,0,0,1,.44-.09,1.15,1.15,0,0,1,.44,2.22l-32.5,13.46A1.13,1.13,0,0,1,441.32,230.5Zm65-26.92a1.15,1.15,0,0,1-.44-2.22l32.5-13.46a1.14,1.14,0,0,1,.44-.09,1.15,1.15,0,0,1,.44,2.22l-32.5,13.46A1.14,1.14,0,0,1,506.32,203.57Z"/><path class="cls-2" d="M396,534.84a1.15,1.15,0,0,1-1.06-.71l-13.46-32.5a1.15,1.15,0,0,1,.62-1.51,1.12,1.12,0,0,1,.44-.09,1.15,1.15,0,0,1,1.07.71l13.46,32.5a1.15,1.15,0,0,1-.62,1.5A1.14,1.14,0,0,1,396,534.84Zm-26.92-65a1.15,1.15,0,0,1-1.07-.71l-13.46-32.5a1.15,1.15,0,0,1,1.06-1.59,1.15,1.15,0,0,1,1.06.71l13.46,32.5a1.15,1.15,0,0,1-.62,1.5A1.13,1.13,0,0,1,369.1,469.84Zm-26.93-65a1.15,1.15,0,0,1-1.06-.71l-13.46-32.5a1.15,1.15,0,1,1,2.13-.88l13.46,32.5a1.15,1.15,0,0,1-.62,1.51A1.13,1.13,0,0,1,342.18,404.84Zm-26.92-65a1.15,1.15,0,0,1-1.06-.71l-13.46-32.5a1.15,1.15,0,1,1,2.13-.88l13.46,32.5a1.15,1.15,0,0,1-1.06,1.59Zm-26.93-65a1.15,1.15,0,0,1-1.06-.71l-13.46-32.5a1.15,1.15,0,0,1,.62-1.51,1.15,1.15,0,0,1,1.51.62l13.46,32.5a1.15,1.15,0,0,1-.62,1.5A1.14,1.14,0,0,1,288.33,274.83Zm-26.93-65a1.15,1.15,0,0,1-1.06-.71l-13.46-32.5a1.15,1.15,0,0,1,1.06-1.59,1.15,1.15,0,0,1,1.06.71l13.46,32.5a1.15,1.15,0,0,1-.62,1.5A1.14,1.14,0,0,1,261.4,209.82Zm-26.92-65a1.15,1.15,0,0,1-1.06-.71l-13.46-32.5A1.15,1.15,0,0,1,221,110a1.15,1.15,0,0,1,1.06.71l13.46,32.5a1.16,1.16,0,0,1-1.06,1.59Zm-26.92-65a1.15,1.15,0,0,1-1.06-.71L193,46.6a1.15,1.15,0,1,1,2.13-.88l13.46,32.5a1.15,1.15,0,0,1-1.06,1.59Z"/><path class="cls-2" d="M332.8,480.85a1.16,1.16,0,0,1-1.13-.93l-6.86-34.5a1.15,1.15,0,0,1,.91-1.35l.23,0a1.15,1.15,0,0,1,1.13.93l6.86,34.51a1.15,1.15,0,0,1-.9,1.35Zm-13.73-69a1.15,1.15,0,0,1-1.12-.93l-6.86-34.5a1.15,1.15,0,0,1,.9-1.35l.23,0a1.15,1.15,0,0,1,1.12.93l6.86,34.5a1.15,1.15,0,0,1-.9,1.35Zm-13.73-69a1.15,1.15,0,0,1-1.13-.93l-6.86-34.5a1.15,1.15,0,0,1,.9-1.35l.23,0a1.15,1.15,0,0,1,1.12.93l6.86,34.51a1.15,1.15,0,0,1-.9,1.35Zm-13.73-69a1.15,1.15,0,0,1-1.12-.93l-6.86-34.5a1.15,1.15,0,0,1,.9-1.35l.23,0a1.15,1.15,0,0,1,1.12.93l6.86,34.5a1.15,1.15,0,0,1-.9,1.35Zm-13.73-69a1.15,1.15,0,0,1-1.13-.93l-6.86-34.5a1.15,1.15,0,0,1,.9-1.35l.23,0a1.15,1.15,0,0,1,1.12.93l6.86,34.5a1.15,1.15,0,0,1-.9,1.35Zm-13.73-69a1.15,1.15,0,0,1-1.13-.93l-6.86-34.5a1.15,1.15,0,0,1,.9-1.35l.23,0a1.15,1.15,0,0,1,1.12.93l6.86,34.5a1.15,1.15,0,0,1-.9,1.35Z"/><path class="cls-2" d="M105.28,328.83a1.15,1.15,0,0,1-.22-2.28l34.51-6.86.23,0a1.15,1.15,0,0,1,1,1.79,1.13,1.13,0,0,1-.73.49l-34.5,6.86Zm69-13.73a1.15,1.15,0,0,1-.22-2.28l34.5-6.86.23,0a1.15,1.15,0,0,1,.22,2.28l-34.5,6.86Zm69-13.73a1.15,1.15,0,0,1-1-1.79,1.14,1.14,0,0,1,.73-.49l34.51-6.86.23,0a1.15,1.15,0,0,1,.22,2.28l-34.5,6.86Zm69-13.73a1.15,1.15,0,0,1-.22-2.28l34.5-6.86.23,0a1.15,1.15,0,0,1,.22,2.28l-34.5,6.86Zm69-13.73a1.15,1.15,0,0,1-.22-2.28l34.51-6.86.23,0A1.15,1.15,0,0,1,416,267l-34.5,6.86Zm69-13.73a1.15,1.15,0,0,1-1-1.79,1.14,1.14,0,0,1,.73-.49l34.5-6.86.23,0a1.15,1.15,0,0,1,.22,2.28l-34.5,6.86Z"/><path class="cls-2" d="M332.8,480.85a1.16,1.16,0,0,1-1.13-.93l-6.86-34.5a1.15,1.15,0,0,1,.91-1.35l.23,0a1.15,1.15,0,0,1,1.13.93l6.86,34.51a1.15,1.15,0,0,1-.9,1.35Zm-13.73-69a1.15,1.15,0,0,1-1.12-.93l-6.86-34.5a1.15,1.15,0,0,1,.9-1.35l.23,0a1.15,1.15,0,0,1,1.12.93l6.86,34.5a1.15,1.15,0,0,1-.9,1.35Zm-13.73-69a1.15,1.15,0,0,1-1.13-.93l-6.86-34.5a1.15,1.15,0,0,1,.9-1.35l.23,0a1.15,1.15,0,0,1,1.12.93l6.86,34.51a1.15,1.15,0,0,1-.9,1.35Zm-13.73-69a1.15,1.15,0,0,1-1.12-.93l-6.86-34.5a1.15,1.15,0,0,1,.9-1.35l.23,0a1.15,1.15,0,0,1,1.12.93l6.86,34.5a1.15,1.15,0,0,1-.9,1.35Zm-13.73-69a1.15,1.15,0,0,1-1.13-.93l-6.86-34.5a1.15,1.15,0,0,1,.9-1.35l.23,0a1.15,1.15,0,0,1,1.12.93l6.86,34.5a1.15,1.15,0,0,1-.9,1.35Zm-13.73-69a1.15,1.15,0,0,1-1.13-.93l-6.86-34.5a1.15,1.15,0,0,1,.9-1.35l.23,0a1.15,1.15,0,0,1,1.12.93l6.86,34.5a1.15,1.15,0,0,1-.9,1.35Z"/><path class="cls-2" d="M105.28,328.83a1.15,1.15,0,0,1-.22-2.28l34.51-6.86.23,0a1.15,1.15,0,0,1,1,1.79,1.13,1.13,0,0,1-.73.49l-34.5,6.86Zm69-13.73a1.15,1.15,0,0,1-.22-2.28l34.5-6.86.23,0a1.15,1.15,0,0,1,.22,2.28l-34.5,6.86Zm69-13.73a1.15,1.15,0,0,1-1-1.79,1.14,1.14,0,0,1,.73-.49l34.51-6.86.23,0a1.15,1.15,0,0,1,.22,2.28l-34.5,6.86Zm69-13.73a1.15,1.15,0,0,1-.22-2.28l34.5-6.86.23,0a1.15,1.15,0,0,1,.22,2.28l-34.5,6.86Zm69-13.73a1.15,1.15,0,0,1-.22-2.28l34.51-6.86.23,0A1.15,1.15,0,0,1,416,267l-34.5,6.86Zm69-13.73a1.15,1.15,0,0,1-1-1.79,1.14,1.14,0,0,1,.73-.49l34.5-6.86.23,0a1.15,1.15,0,0,1,.22,2.28l-34.5,6.86Z"/><path class="cls-2" d="M455.94,398.58a1.15,1.15,0,0,1-.64-.2L426,378.84a1.15,1.15,0,0,1-.32-1.6,1.15,1.15,0,0,1,1-.51,1.14,1.14,0,0,1,.64.2l29.25,19.55a1.15,1.15,0,0,1-.64,2.11Zm-58.5-39.09a1.14,1.14,0,0,1-.64-.2l-29.25-19.54a1.15,1.15,0,0,1,1.28-1.91l29.25,19.54a1.15,1.15,0,0,1-.64,2.11Zm-58.5-39.09a1.14,1.14,0,0,1-.64-.19L309,300.66a1.15,1.15,0,0,1,.64-2.11,1.14,1.14,0,0,1,.64.19l29.25,19.54a1.15,1.15,0,0,1-.64,2.11Zm-58.5-39.09a1.14,1.14,0,0,1-.64-.2l-29.25-19.54a1.15,1.15,0,1,1,1.28-1.92l29.25,19.55a1.15,1.15,0,0,1-.64,2.11Zm-58.5-39.09a1.16,1.16,0,0,1-.64-.19L192,222.48a1.15,1.15,0,0,1,.64-2.11,1.13,1.13,0,0,1,.64.2l29.25,19.54a1.15,1.15,0,0,1-.64,2.11Zm-58.5-39.09a1.14,1.14,0,0,1-.64-.2l-29.25-19.54a1.15,1.15,0,0,1,.64-2.11,1.14,1.14,0,0,1,.64.2L164.07,201a1.15,1.15,0,0,1,.32,1.6A1.15,1.15,0,0,1,163.43,203.13Z"/><path class="cls-2" d="M187.56,452a1.14,1.14,0,0,1-.64-.2,1.15,1.15,0,0,1-.32-1.6l19.54-29.25a1.15,1.15,0,0,1,1-.51,1.14,1.14,0,0,1,.64.19,1.16,1.16,0,0,1,.32,1.6l-19.55,29.25A1.15,1.15,0,0,1,187.56,452Zm39.09-58.5a1.16,1.16,0,0,1-1.13-.93,1.15,1.15,0,0,1,.17-.86l19.54-29.25a1.15,1.15,0,0,1,1.92,1.28l-19.54,29.25A1.15,1.15,0,0,1,226.65,393.46ZM265.74,335a1.15,1.15,0,0,1-1-1.79l19.55-29.25a1.15,1.15,0,0,1,1.92,1.28L266.7,334.44A1.15,1.15,0,0,1,265.74,335Zm39.09-58.5a1.15,1.15,0,0,1-1-1.79l19.54-29.25a1.15,1.15,0,0,1,1-.51,1.14,1.14,0,0,1,.64.19,1.15,1.15,0,0,1,.32,1.6l-19.54,29.25A1.15,1.15,0,0,1,304.83,276.45ZM343.92,218a1.15,1.15,0,0,1-1.13-.93,1.14,1.14,0,0,1,.17-.86l19.55-29.25a1.15,1.15,0,0,1,1.91,1.28l-19.55,29.25A1.15,1.15,0,0,1,343.92,218ZM383,159.45a1.15,1.15,0,0,1-1-1.79l19.55-29.25a1.15,1.15,0,1,1,1.91,1.28L384,158.94A1.16,1.16,0,0,1,383,159.45Z"/><path class="cls-2" d="M455.94,398.58a1.15,1.15,0,0,1-.64-.2L426,378.84a1.15,1.15,0,0,1-.32-1.6,1.15,1.15,0,0,1,1-.51,1.14,1.14,0,0,1,.64.2l29.25,19.55a1.15,1.15,0,0,1-.64,2.11Zm-58.5-39.09a1.14,1.14,0,0,1-.64-.2l-29.25-19.54a1.15,1.15,0,0,1,1.28-1.91l29.25,19.54a1.15,1.15,0,0,1-.64,2.11Zm-58.5-39.09a1.14,1.14,0,0,1-.64-.19L309,300.66a1.15,1.15,0,0,1,.64-2.11,1.14,1.14,0,0,1,.64.19l29.25,19.54a1.15,1.15,0,0,1-.64,2.11Zm-58.5-39.09a1.14,1.14,0,0,1-.64-.2l-29.25-19.54a1.15,1.15,0,1,1,1.28-1.92l29.25,19.55a1.15,1.15,0,0,1-.64,2.11Zm-58.5-39.09a1.16,1.16,0,0,1-.64-.19L192,222.48a1.15,1.15,0,0,1,.64-2.11,1.13,1.13,0,0,1,.64.2l29.25,19.54a1.15,1.15,0,0,1-.64,2.11Zm-58.5-39.09a1.14,1.14,0,0,1-.64-.2l-29.25-19.54a1.15,1.15,0,0,1,.64-2.11,1.14,1.14,0,0,1,.64.2L164.07,201a1.15,1.15,0,0,1,.32,1.6A1.15,1.15,0,0,1,163.43,203.13Z"/><path class="cls-2" d="M187.56,452a1.14,1.14,0,0,1-.64-.2,1.15,1.15,0,0,1-.32-1.6l19.54-29.25a1.15,1.15,0,0,1,1-.51,1.14,1.14,0,0,1,.64.19,1.16,1.16,0,0,1,.32,1.6l-19.55,29.25A1.15,1.15,0,0,1,187.56,452Zm39.09-58.5a1.16,1.16,0,0,1-1.13-.93,1.15,1.15,0,0,1,.17-.86l19.54-29.25a1.15,1.15,0,0,1,1.92,1.28l-19.54,29.25A1.15,1.15,0,0,1,226.65,393.46ZM265.74,335a1.15,1.15,0,0,1-1-1.79l19.55-29.25a1.15,1.15,0,0,1,1.92,1.28L266.7,334.44A1.15,1.15,0,0,1,265.74,335Zm39.09-58.5a1.15,1.15,0,0,1-1-1.79l19.54-29.25a1.15,1.15,0,0,1,1-.51,1.14,1.14,0,0,1,.64.19,1.15,1.15,0,0,1,.32,1.6l-19.54,29.25A1.15,1.15,0,0,1,304.83,276.45ZM343.92,218a1.15,1.15,0,0,1-1.13-.93,1.14,1.14,0,0,1,.17-.86l19.55-29.25a1.15,1.15,0,0,1,1.91,1.28l-19.55,29.25A1.15,1.15,0,0,1,343.92,218ZM383,159.45a1.15,1.15,0,0,1-1-1.79l19.55-29.25a1.15,1.15,0,1,1,1.91,1.28L384,158.94A1.16,1.16,0,0,1,383,159.45Z"/><path class="cls-2" d="M484.83,328.83l-.23,0-34.5-6.86a1.15,1.15,0,0,1,.22-2.28l.23,0,34.5,6.86a1.14,1.14,0,0,1,.73.49,1.15,1.15,0,0,1-1,1.79Zm-69-13.73-.23,0-34.5-6.86a1.15,1.15,0,0,1-.91-1.35,1.15,1.15,0,0,1,1.13-.93l.23,0,34.5,6.86a1.15,1.15,0,0,1-.22,2.28Zm-69-13.73-.23,0-34.5-6.86a1.15,1.15,0,0,1,.22-2.28l.23,0,34.5,6.86a1.15,1.15,0,0,1-.22,2.28Zm-69-13.73-.23,0-34.5-6.86a1.15,1.15,0,0,1-.9-1.35,1.15,1.15,0,0,1,1.12-.93l.23,0,34.5,6.86a1.15,1.15,0,0,1,.73.49,1.13,1.13,0,0,1,.17.86A1.15,1.15,0,0,1,277.81,287.65Zm-69-13.73-.23,0L174.07,267a1.15,1.15,0,0,1,.22-2.28l.23,0,34.5,6.86a1.14,1.14,0,0,1,.73.49,1.15,1.15,0,0,1-1,1.79Zm-69-13.73-.23,0-34.5-6.86a1.15,1.15,0,0,1,.22-2.28l.23,0,34.5,6.86a1.15,1.15,0,0,1-.22,2.28Z"/><path class="cls-2" d="M257.31,480.85l-.23,0a1.15,1.15,0,0,1-.9-1.35L263,445a1.15,1.15,0,0,1,1.12-.93l.23,0a1.15,1.15,0,0,1,.9,1.35l-6.86,34.5A1.15,1.15,0,0,1,257.31,480.85Zm13.73-69-.23,0a1.15,1.15,0,0,1-.9-1.35l6.86-34.5a1.15,1.15,0,0,1,1.12-.93l.23,0a1.15,1.15,0,0,1,.9,1.35l-6.86,34.5A1.15,1.15,0,0,1,271,411.84Zm13.73-69-.23,0a1.15,1.15,0,0,1-.9-1.35L290.5,307a1.15,1.15,0,0,1,1.13-.93l.23,0a1.15,1.15,0,0,1,.9,1.35l-6.86,34.5A1.15,1.15,0,0,1,284.76,342.84Zm13.73-69-.23,0a1.15,1.15,0,0,1-.9-1.35l6.86-34.5a1.15,1.15,0,0,1,1.12-.93l.23,0a1.15,1.15,0,0,1,.9,1.35l-6.86,34.5A1.15,1.15,0,0,1,298.49,273.83Zm13.73-69-.23,0a1.15,1.15,0,0,1-.91-1.35l6.86-34.5a1.15,1.15,0,0,1,1.13-.93l.23,0a1.14,1.14,0,0,1,.73.49,1.15,1.15,0,0,1,.17.87l-6.86,34.5A1.15,1.15,0,0,1,312.22,204.82Zm13.73-69-.23,0a1.15,1.15,0,0,1-.9-1.35l6.86-34.5A1.15,1.15,0,0,1,332.8,99l.23,0a1.15,1.15,0,0,1,.9,1.35l-6.86,34.5A1.15,1.15,0,0,1,325.94,135.81Z"/><path class="cls-2" d="M484.83,328.83l-.23,0-34.5-6.86a1.15,1.15,0,0,1,.22-2.28l.23,0,34.5,6.86a1.14,1.14,0,0,1,.73.49,1.15,1.15,0,0,1-1,1.79Zm-69-13.73-.23,0-34.5-6.86a1.15,1.15,0,0,1-.91-1.35,1.15,1.15,0,0,1,1.13-.93l.23,0,34.5,6.86a1.15,1.15,0,0,1-.22,2.28Zm-69-13.73-.23,0-34.5-6.86a1.15,1.15,0,0,1,.22-2.28l.23,0,34.5,6.86a1.15,1.15,0,0,1-.22,2.28Zm-69-13.73-.23,0-34.5-6.86a1.15,1.15,0,0,1-.9-1.35,1.15,1.15,0,0,1,1.12-.93l.23,0,34.5,6.86a1.15,1.15,0,0,1,.73.49,1.13,1.13,0,0,1,.17.86A1.15,1.15,0,0,1,277.81,287.65Zm-69-13.73-.23,0L174.07,267a1.15,1.15,0,0,1,.22-2.28l.23,0,34.5,6.86a1.14,1.14,0,0,1,.73.49,1.15,1.15,0,0,1-1,1.79Zm-69-13.73-.23,0-34.5-6.86a1.15,1.15,0,0,1,.22-2.28l.23,0,34.5,6.86a1.15,1.15,0,0,1-.22,2.28Z"/><path class="cls-2" d="M257.31,480.85l-.23,0a1.15,1.15,0,0,1-.9-1.35L263,445a1.15,1.15,0,0,1,1.12-.93l.23,0a1.15,1.15,0,0,1,.9,1.35l-6.86,34.5A1.15,1.15,0,0,1,257.31,480.85Zm13.73-69-.23,0a1.15,1.15,0,0,1-.9-1.35l6.86-34.5a1.15,1.15,0,0,1,1.12-.93l.23,0a1.15,1.15,0,0,1,.9,1.35l-6.86,34.5A1.15,1.15,0,0,1,271,411.84Zm13.73-69-.23,0a1.15,1.15,0,0,1-.9-1.35L290.5,307a1.15,1.15,0,0,1,1.13-.93l.23,0a1.15,1.15,0,0,1,.9,1.35l-6.86,34.5A1.15,1.15,0,0,1,284.76,342.84Zm13.73-69-.23,0a1.15,1.15,0,0,1-.9-1.35l6.86-34.5a1.15,1.15,0,0,1,1.12-.93l.23,0a1.15,1.15,0,0,1,.9,1.35l-6.86,34.5A1.15,1.15,0,0,1,298.49,273.83Zm13.73-69-.23,0a1.15,1.15,0,0,1-.91-1.35l6.86-34.5a1.15,1.15,0,0,1,1.13-.93l.23,0a1.14,1.14,0,0,1,.73.49,1.15,1.15,0,0,1,.17.87l-6.86,34.5A1.15,1.15,0,0,1,312.22,204.82Zm13.73-69-.23,0a1.15,1.15,0,0,1-.9-1.35l6.86-34.5A1.15,1.15,0,0,1,332.8,99l.23,0a1.15,1.15,0,0,1,.9,1.35l-6.86,34.5A1.15,1.15,0,0,1,325.94,135.81Z"/><path class="cls-2" d="M134.18,398.58a1.15,1.15,0,0,1-1-.51,1.15,1.15,0,0,1,.32-1.6l29.25-19.55a1.15,1.15,0,1,1,1.28,1.91l-29.25,19.55A1.15,1.15,0,0,1,134.18,398.58Zm58.5-39.09a1.15,1.15,0,0,1-.64-2.11l29.25-19.54a1.15,1.15,0,1,1,1.28,1.91l-29.25,19.54A1.14,1.14,0,0,1,192.68,359.49Zm58.5-39.09a1.15,1.15,0,0,1-.64-2.11l29.25-19.54a1.15,1.15,0,1,1,1.28,1.92L251.82,320.2A1.14,1.14,0,0,1,251.18,320.4Zm58.5-39.09a1.15,1.15,0,0,1-1-.51,1.15,1.15,0,0,1,.32-1.6l29.25-19.55a1.15,1.15,0,0,1,1.28,1.92l-29.25,19.54A1.14,1.14,0,0,1,309.69,281.31Zm58.5-39.09a1.15,1.15,0,0,1-.64-2.11l29.25-19.54a1.14,1.14,0,0,1,.64-.2,1.15,1.15,0,0,1,.64,2.11L368.82,242A1.15,1.15,0,0,1,368.19,242.22Zm58.5-39.09A1.15,1.15,0,0,1,426,201l29.25-19.54a1.13,1.13,0,0,1,.64-.2,1.15,1.15,0,0,1,.64,2.11l-29.25,19.54A1.14,1.14,0,0,1,426.69,203.13Z"/><path class="cls-2" d="M402.56,452a1.15,1.15,0,0,1-1-.51L382.05,422.2a1.15,1.15,0,0,1,.32-1.6,1.14,1.14,0,0,1,.64-.19,1.15,1.15,0,0,1,1,.51l19.54,29.25a1.15,1.15,0,0,1-.32,1.6A1.14,1.14,0,0,1,402.56,452Zm-39.09-58.5a1.15,1.15,0,0,1-1-.51L343,363.69a1.15,1.15,0,0,1,1-1.79,1.15,1.15,0,0,1,1,.51l19.54,29.25a1.15,1.15,0,0,1-1,1.79ZM324.38,335a1.15,1.15,0,0,1-1-.51l-19.55-29.25a1.15,1.15,0,1,1,1.91-1.28l19.54,29.25a1.15,1.15,0,0,1-1,1.79Zm-39.09-58.5a1.15,1.15,0,0,1-1-.51l-19.55-29.25a1.15,1.15,0,0,1,.32-1.6,1.15,1.15,0,0,1,1.6.32l19.54,29.25a1.15,1.15,0,0,1-1,1.79ZM246.2,218a1.15,1.15,0,0,1-1-.51l-19.54-29.25a1.15,1.15,0,0,1,1.92-1.28l19.54,29.25a1.15,1.15,0,0,1-1,1.79Zm-39.09-58.5a1.16,1.16,0,0,1-1-.51L186.6,129.69a1.15,1.15,0,1,1,1.92-1.28l19.54,29.25a1.15,1.15,0,0,1-1,1.79Z"/><path class="cls-2" d="M134.18,398.58a1.15,1.15,0,0,1-1-.51,1.15,1.15,0,0,1,.32-1.6l29.25-19.55a1.15,1.15,0,1,1,1.28,1.91l-29.25,19.55A1.15,1.15,0,0,1,134.18,398.58Zm58.5-39.09a1.15,1.15,0,0,1-.64-2.11l29.25-19.54a1.15,1.15,0,1,1,1.28,1.91l-29.25,19.54A1.14,1.14,0,0,1,192.68,359.49Zm58.5-39.09a1.15,1.15,0,0,1-.64-2.11l29.25-19.54a1.15,1.15,0,1,1,1.28,1.92L251.82,320.2A1.14,1.14,0,0,1,251.18,320.4Zm58.5-39.09a1.15,1.15,0,0,1-1-.51,1.15,1.15,0,0,1,.32-1.6l29.25-19.55a1.15,1.15,0,0,1,1.28,1.92l-29.25,19.54A1.14,1.14,0,0,1,309.69,281.31Zm58.5-39.09a1.15,1.15,0,0,1-.64-2.11l29.25-19.54a1.14,1.14,0,0,1,.64-.2,1.15,1.15,0,0,1,.64,2.11L368.82,242A1.15,1.15,0,0,1,368.19,242.22Zm58.5-39.09A1.15,1.15,0,0,1,426,201l29.25-19.54a1.13,1.13,0,0,1,.64-.2,1.15,1.15,0,0,1,.64,2.11l-29.25,19.54A1.14,1.14,0,0,1,426.69,203.13Z"/><path class="cls-2" d="M402.56,452a1.15,1.15,0,0,1-1-.51L382.05,422.2a1.15,1.15,0,0,1,.32-1.6,1.14,1.14,0,0,1,.64-.19,1.15,1.15,0,0,1,1,.51l19.54,29.25a1.15,1.15,0,0,1-.32,1.6A1.14,1.14,0,0,1,402.56,452Zm-39.09-58.5a1.15,1.15,0,0,1-1-.51L343,363.69a1.15,1.15,0,0,1,1-1.79,1.15,1.15,0,0,1,1,.51l19.54,29.25a1.15,1.15,0,0,1-1,1.79ZM324.38,335a1.15,1.15,0,0,1-1-.51l-19.55-29.25a1.15,1.15,0,1,1,1.91-1.28l19.54,29.25a1.15,1.15,0,0,1-1,1.79Zm-39.09-58.5a1.15,1.15,0,0,1-1-.51l-19.55-29.25a1.15,1.15,0,0,1,.32-1.6,1.15,1.15,0,0,1,1.6.32l19.54,29.25a1.15,1.15,0,0,1-1,1.79ZM246.2,218a1.15,1.15,0,0,1-1-.51l-19.54-29.25a1.15,1.15,0,0,1,1.92-1.28l19.54,29.25a1.15,1.15,0,0,1-1,1.79Zm-39.09-58.5a1.16,1.16,0,0,1-1-.51L186.6,129.69a1.15,1.15,0,1,1,1.92-1.28l19.54,29.25a1.15,1.15,0,0,1-1,1.79Z"/><polygon class="cls-3" points="195.15 162.69 436.77 190.85 437.46 139.71 196.54 112.55 215.34 139.71 195.15 162.69"/><polygon class="cls-3" points="151.97 189.15 506.95 205.29 506.99 283.8 151.66 240.32 151.97 189.15"/><polygon class="cls-3" points="80.95 281.76 436.77 321.2 437.59 372.24 79.92 358.43 80.95 281.76"/><polygon class="cls-4" points="152.68 372.97 391.5 398.04 371.3 421.01 390.81 450.96 150.11 421.76 152.68 372.97"/><polygon class="cls-5" points="195.15 162.69 436.77 190.85 437.46 139.71 196.54 112.55 215.34 139.71 195.15 162.69"/><g class="cls-6"><rect class="cls-2" x="250.27" y="437.82" width="376.5" height="1.41" transform="translate(-181.64 438.52) rotate(-45)"/><rect class="cls-2" x="243.92" y="431.46" width="376.5" height="1.41" transform="translate(-179.01 432.17) rotate(-45)"/><rect class="cls-2" x="237.57" y="425.11" width="376.5" height="1.41" transform="translate(-176.38 425.77) rotate(-45)"/><rect class="cls-2" x="231.21" y="418.76" width="376.5" height="1.41" transform="translate(-173.75 419.42) rotate(-45)"/><rect class="cls-2" x="224.86" y="412.41" width="376.5" height="1.41" transform="translate(-171.12 413.07) rotate(-45)"/><rect class="cls-2" x="218.51" y="406.05" width="376.5" height="1.41" transform="translate(-168.48 406.39) rotate(-44.96)"/><rect class="cls-2" x="212.16" y="399.7" width="376.5" height="1.41" transform="translate(-165.85 400.45) rotate(-45)"/><rect class="cls-2" x="205.8" y="393.35" width="376.5" height="1.41" transform="translate(-163.22 394.45) rotate(-45.04)"/><rect class="cls-2" x="199.45" y="387" width="376.5" height="1.41" transform="translate(-160.59 387.31) rotate(-44.96)"/><rect class="cls-2" x="193.1" y="380.65" width="376.5" height="1.41" transform="translate(-157.96 381.31) rotate(-45)"/><rect class="cls-2" x="186.75" y="374.29" width="376.5" height="1.41" transform="translate(-155.33 374.98) rotate(-45)"/><rect class="cls-2" x="180.39" y="367.94" width="376.5" height="1.41" transform="translate(-152.7 369.03) rotate(-45.04)"/><rect class="cls-2" x="174.04" y="361.59" width="376.5" height="1.41" transform="translate(-150.07 362.32) rotate(-45)"/><rect class="cls-2" x="167.69" y="355.24" width="376.5" height="1.41" transform="translate(-147.44 355.96) rotate(-45)"/><rect class="cls-2" x="161.34" y="348.88" width="376.5" height="1.41" transform="translate(-144.8 349.58) rotate(-45)"/><rect class="cls-2" x="154.99" y="342.53" width="376.5" height="1.41" transform="translate(-142.17 343.59) rotate(-45.04)"/><rect class="cls-2" x="148.63" y="336.18" width="376.5" height="1.41" transform="translate(-139.54 336.88) rotate(-45)"/><rect class="cls-2" x="142.28" y="329.83" width="376.5" height="1.41" transform="translate(-136.91 330.5) rotate(-45)"/><rect class="cls-2" x="135.93" y="323.48" width="376.5" height="1.41" transform="translate(-134.28 324.18) rotate(-45)"/><rect class="cls-2" x="129.58" y="317.12" width="376.5" height="1.41" transform="translate(-131.65 317.54) rotate(-44.96)"/><rect class="cls-2" x="123.22" y="310.77" width="376.5" height="1.41" transform="translate(-129.02 311.51) rotate(-45)"/><rect class="cls-2" x="116.87" y="304.42" width="376.5" height="1.41" transform="translate(-126.39 305.12) rotate(-45)"/><rect class="cls-2" x="110.52" y="298.07" width="376.5" height="1.41" transform="translate(-123.75 298.77) rotate(-45)"/><rect class="cls-2" x="104.17" y="291.71" width="376.5" height="1.41" transform="translate(-121.12 292.71) rotate(-45.04)"/><rect class="cls-2" x="97.82" y="285.36" width="376.5" height="1.41" transform="translate(-118.49 286.07) rotate(-45)"/><rect class="cls-2" x="91.46" y="279.01" width="376.5" height="1.41" transform="translate(-115.86 279.43) rotate(-44.96)"/><rect class="cls-2" x="85.11" y="272.66" width="376.5" height="1.41" transform="translate(-113.23 273.36) rotate(-45)"/><rect class="cls-2" x="78.76" y="266.31" width="376.5" height="1.41" transform="translate(-110.6 267.04) rotate(-45)"/><rect class="cls-2" x="72.41" y="259.95" width="376.5" height="1.41" transform="translate(-107.97 260.42) rotate(-44.96)"/><rect class="cls-2" x="66.05" y="253.6" width="376.5" height="1.41" transform="translate(-105.34 254.3) rotate(-45)"/><rect class="cls-2" x="59.7" y="247.25" width="376.5" height="1.41" transform="translate(-102.7 248.2) rotate(-45.04)"/><rect class="cls-2" x="53.35" y="240.9" width="376.5" height="1.41" transform="translate(-100.07 241.6) rotate(-45)"/><rect class="cls-2" x="47" y="234.54" width="376.5" height="1.41" transform="translate(-97.44 235.22) rotate(-45)"/><rect class="cls-2" x="40.65" y="228.19" width="376.5" height="1.41" transform="translate(-94.81 228.9) rotate(-45)"/><rect class="cls-2" x="34.29" y="221.84" width="376.5" height="1.41" transform="translate(-92.18 222.54) rotate(-45)"/><rect class="cls-2" x="27.94" y="215.49" width="376.5" height="1.41" transform="translate(-89.55 216.21) rotate(-45)"/><rect class="cls-2" x="21.59" y="209.13" width="376.5" height="1.41" transform="translate(-86.92 209.84) rotate(-45)"/><rect class="cls-2" x="15.24" y="202.78" width="376.5" height="1.41" transform="translate(-84.29 203.28) rotate(-44.96)"/><rect class="cls-2" x="8.88" y="196.43" width="376.5" height="1.41" transform="translate(-81.66 197.13) rotate(-45)"/><rect class="cls-2" x="2.53" y="190.08" width="376.5" height="1.41" transform="translate(-79.02 190.57) rotate(-44.95)"/><rect class="cls-2" x="-3.82" y="183.73" width="376.5" height="1.41" transform="translate(-76.39 184.41) rotate(-45)"/><rect class="cls-2" x="-10.17" y="177.37" width="376.5" height="1.41" transform="translate(-73.76 178.1) rotate(-45)"/><rect class="cls-2" x="-16.53" y="171.02" width="376.5" height="1.41" transform="translate(-71.13 171.74) rotate(-45)"/><rect class="cls-2" x="-22.88" y="164.67" width="376.5" height="1.41" transform="translate(-68.5 165.22) rotate(-44.96)"/><rect class="cls-2" x="-29.23" y="158.32" width="376.5" height="1.41" transform="translate(-65.87 159.02) rotate(-45)"/><rect class="cls-2" x="-35.58" y="151.96" width="376.5" height="1.41" transform="translate(-63.24 152.65) rotate(-45)"/><rect class="cls-2" x="-41.93" y="145.61" width="376.5" height="1.41" transform="translate(-60.61 146.3) rotate(-45)"/><rect class="cls-2" x="-48.29" y="139.26" width="376.5" height="1.41" transform="translate(-57.97 139.95) rotate(-45)"/><rect class="cls-2" x="-54.64" y="132.91" width="376.5" height="1.41" transform="translate(-55.34 133.81) rotate(-45.06)"/></g><polygon class="cls-7" points="195.15 162.69 436.77 190.85 437.46 139.71 196.54 112.55 215.34 139.71 195.15 162.69"/><polygon class="cls-5" points="151.97 189.15 506.95 205.29 506.99 283.8 151.66 240.32 151.97 189.15"/><g class="cls-8"><rect class="cls-2" x="250.27" y="437.82" width="376.5" height="1.41" transform="translate(-181.64 438.52) rotate(-45)"/><rect class="cls-2" x="243.92" y="431.46" width="376.5" height="1.41" transform="translate(-179.01 432.17) rotate(-45)"/><rect class="cls-2" x="237.57" y="425.11" width="376.5" height="1.41" transform="translate(-176.38 425.77) rotate(-45)"/><rect class="cls-2" x="231.21" y="418.76" width="376.5" height="1.41" transform="translate(-173.75 419.42) rotate(-45)"/><rect class="cls-2" x="224.86" y="412.41" width="376.5" height="1.41" transform="translate(-171.12 413.07) rotate(-45)"/><rect class="cls-2" x="218.51" y="406.05" width="376.5" height="1.41" transform="translate(-168.48 406.39) rotate(-44.96)"/><rect class="cls-2" x="212.16" y="399.7" width="376.5" height="1.41" transform="translate(-165.85 400.45) rotate(-45)"/><rect class="cls-2" x="205.8" y="393.35" width="376.5" height="1.41" transform="translate(-163.22 394.45) rotate(-45.04)"/><rect class="cls-2" x="199.45" y="387" width="376.5" height="1.41" transform="translate(-160.59 387.31) rotate(-44.96)"/><rect class="cls-2" x="193.1" y="380.65" width="376.5" height="1.41" transform="translate(-157.96 381.31) rotate(-45)"/><rect class="cls-2" x="186.75" y="374.29" width="376.5" height="1.41" transform="translate(-155.33 374.98) rotate(-45)"/><rect class="cls-2" x="180.39" y="367.94" width="376.5" height="1.41" transform="translate(-152.7 369.03) rotate(-45.04)"/><rect class="cls-2" x="174.04" y="361.59" width="376.5" height="1.41" transform="translate(-150.07 362.32) rotate(-45)"/><rect class="cls-2" x="167.69" y="355.24" width="376.5" height="1.41" transform="translate(-147.44 355.96) rotate(-45)"/><rect class="cls-2" x="161.34" y="348.88" width="376.5" height="1.41" transform="translate(-144.8 349.58) rotate(-45)"/><rect class="cls-2" x="154.99" y="342.53" width="376.5" height="1.41" transform="translate(-142.17 343.59) rotate(-45.04)"/><rect class="cls-2" x="148.63" y="336.18" width="376.5" height="1.41" transform="translate(-139.54 336.88) rotate(-45)"/><rect class="cls-2" x="142.28" y="329.83" width="376.5" height="1.41" transform="translate(-136.91 330.5) rotate(-45)"/><rect class="cls-2" x="135.93" y="323.48" width="376.5" height="1.41" transform="translate(-134.28 324.18) rotate(-45)"/><rect class="cls-2" x="129.58" y="317.12" width="376.5" height="1.41" transform="translate(-131.65 317.54) rotate(-44.96)"/><rect class="cls-2" x="123.22" y="310.77" width="376.5" height="1.41" transform="translate(-129.02 311.51) rotate(-45)"/><rect class="cls-2" x="116.87" y="304.42" width="376.5" height="1.41" transform="translate(-126.39 305.12) rotate(-45)"/><rect class="cls-2" x="110.52" y="298.07" width="376.5" height="1.41" transform="translate(-123.75 298.77) rotate(-45)"/><rect class="cls-2" x="104.17" y="291.71" width="376.5" height="1.41" transform="translate(-121.12 292.71) rotate(-45.04)"/><rect class="cls-2" x="97.82" y="285.36" width="376.5" height="1.41" transform="translate(-118.49 286.07) rotate(-45)"/><rect class="cls-2" x="91.46" y="279.01" width="376.5" height="1.41" transform="translate(-115.86 279.43) rotate(-44.96)"/><rect class="cls-2" x="85.11" y="272.66" width="376.5" height="1.41" transform="translate(-113.23 273.36) rotate(-45)"/><rect class="cls-2" x="78.76" y="266.31" width="376.5" height="1.41" transform="translate(-110.6 267.04) rotate(-45)"/><rect class="cls-2" x="72.41" y="259.95" width="376.5" height="1.41" transform="translate(-107.97 260.42) rotate(-44.96)"/><rect class="cls-2" x="66.05" y="253.6" width="376.5" height="1.41" transform="translate(-105.34 254.3) rotate(-45)"/><rect class="cls-2" x="59.7" y="247.25" width="376.5" height="1.41" transform="translate(-102.7 248.2) rotate(-45.04)"/><rect class="cls-2" x="53.35" y="240.9" width="376.5" height="1.41" transform="translate(-100.07 241.6) rotate(-45)"/><rect class="cls-2" x="47" y="234.54" width="376.5" height="1.41" transform="translate(-97.44 235.22) rotate(-45)"/><rect class="cls-2" x="40.65" y="228.19" width="376.5" height="1.41" transform="translate(-94.81 228.9) rotate(-45)"/><rect class="cls-2" x="34.29" y="221.84" width="376.5" height="1.41" transform="translate(-92.18 222.54) rotate(-45)"/><rect class="cls-2" x="27.94" y="215.49" width="376.5" height="1.41" transform="translate(-89.55 216.21) rotate(-45)"/><rect class="cls-2" x="21.59" y="209.13" width="376.5" height="1.41" transform="translate(-86.92 209.84) rotate(-45)"/><rect class="cls-2" x="15.24" y="202.78" width="376.5" height="1.41" transform="translate(-84.29 203.28) rotate(-44.96)"/><rect class="cls-2" x="8.88" y="196.43" width="376.5" height="1.41" transform="translate(-81.66 197.13) rotate(-45)"/><rect class="cls-2" x="2.53" y="190.08" width="376.5" height="1.41" transform="translate(-79.02 190.57) rotate(-44.95)"/><rect class="cls-2" x="-3.82" y="183.73" width="376.5" height="1.41" transform="translate(-76.39 184.41) rotate(-45)"/><rect class="cls-2" x="-10.17" y="177.37" width="376.5" height="1.41" transform="translate(-73.76 178.1) rotate(-45)"/><rect class="cls-2" x="-16.53" y="171.02" width="376.5" height="1.41" transform="translate(-71.13 171.74) rotate(-45)"/><rect class="cls-2" x="-22.88" y="164.67" width="376.5" height="1.41" transform="translate(-68.5 165.22) rotate(-44.96)"/><rect class="cls-2" x="-29.23" y="158.32" width="376.5" height="1.41" transform="translate(-65.87 159.02) rotate(-45)"/><rect class="cls-2" x="-35.58" y="151.96" width="376.5" height="1.41" transform="translate(-63.24 152.65) rotate(-45)"/><rect class="cls-2" x="-41.93" y="145.61" width="376.5" height="1.41" transform="translate(-60.61 146.3) rotate(-45)"/><rect class="cls-2" x="-48.29" y="139.26" width="376.5" height="1.41" transform="translate(-57.97 139.95) rotate(-45)"/><rect class="cls-2" x="-54.64" y="132.91" width="376.5" height="1.41" transform="translate(-55.34 133.81) rotate(-45.06)"/></g><polygon class="cls-7" points="151.97 189.15 506.95 205.29 506.99 283.8 151.66 240.32 151.97 189.15"/><polygon class="cls-5" points="80.95 281.76 436.77 321.2 437.59 372.24 79.92 358.43 80.95 281.76"/><g class="cls-9"><rect class="cls-2" x="250.27" y="437.82" width="376.5" height="1.41" transform="translate(-181.64 438.52) rotate(-45)"/><rect class="cls-2" x="243.92" y="431.46" width="376.5" height="1.41" transform="translate(-179.01 432.17) rotate(-45)"/><rect class="cls-2" x="237.57" y="425.11" width="376.5" height="1.41" transform="translate(-176.38 425.77) rotate(-45)"/><rect class="cls-2" x="231.21" y="418.76" width="376.5" height="1.41" transform="translate(-173.75 419.42) rotate(-45)"/><rect class="cls-2" x="224.86" y="412.41" width="376.5" height="1.41" transform="translate(-171.12 413.07) rotate(-45)"/><rect class="cls-2" x="218.51" y="406.05" width="376.5" height="1.41" transform="translate(-168.48 406.39) rotate(-44.96)"/><rect class="cls-2" x="212.16" y="399.7" width="376.5" height="1.41" transform="translate(-165.85 400.45) rotate(-45)"/><rect class="cls-2" x="205.8" y="393.35" width="376.5" height="1.41" transform="translate(-163.22 394.45) rotate(-45.04)"/><rect class="cls-2" x="199.45" y="387" width="376.5" height="1.41" transform="translate(-160.59 387.31) rotate(-44.96)"/><rect class="cls-2" x="193.1" y="380.65" width="376.5" height="1.41" transform="translate(-157.96 381.31) rotate(-45)"/><rect class="cls-2" x="186.75" y="374.29" width="376.5" height="1.41" transform="translate(-155.33 374.98) rotate(-45)"/><rect class="cls-2" x="180.39" y="367.94" width="376.5" height="1.41" transform="translate(-152.7 369.03) rotate(-45.04)"/><rect class="cls-2" x="174.04" y="361.59" width="376.5" height="1.41" transform="translate(-150.07 362.32) rotate(-45)"/><rect class="cls-2" x="167.69" y="355.24" width="376.5" height="1.41" transform="translate(-147.44 355.96) rotate(-45)"/><rect class="cls-2" x="161.34" y="348.88" width="376.5" height="1.41" transform="translate(-144.8 349.58) rotate(-45)"/><rect class="cls-2" x="154.99" y="342.53" width="376.5" height="1.41" transform="translate(-142.17 343.59) rotate(-45.04)"/><rect class="cls-2" x="148.63" y="336.18" width="376.5" height="1.41" transform="translate(-139.54 336.88) rotate(-45)"/><rect class="cls-2" x="142.28" y="329.83" width="376.5" height="1.41" transform="translate(-136.91 330.5) rotate(-45)"/><rect class="cls-2" x="135.93" y="323.48" width="376.5" height="1.41" transform="translate(-134.28 324.18) rotate(-45)"/><rect class="cls-2" x="129.58" y="317.12" width="376.5" height="1.41" transform="translate(-131.65 317.54) rotate(-44.96)"/><rect class="cls-2" x="123.22" y="310.77" width="376.5" height="1.41" transform="translate(-129.02 311.51) rotate(-45)"/><rect class="cls-2" x="116.87" y="304.42" width="376.5" height="1.41" transform="translate(-126.39 305.12) rotate(-45)"/><rect class="cls-2" x="110.52" y="298.07" width="376.5" height="1.41" transform="translate(-123.75 298.77) rotate(-45)"/><rect class="cls-2" x="104.17" y="291.71" width="376.5" height="1.41" transform="translate(-121.12 292.71) rotate(-45.04)"/><rect class="cls-2" x="97.82" y="285.36" width="376.5" height="1.41" transform="translate(-118.49 286.07) rotate(-45)"/><rect class="cls-2" x="91.46" y="279.01" width="376.5" height="1.41" transform="translate(-115.86 279.43) rotate(-44.96)"/><rect class="cls-2" x="85.11" y="272.66" width="376.5" height="1.41" transform="translate(-113.23 273.36) rotate(-45)"/><rect class="cls-2" x="78.76" y="266.31" width="376.5" height="1.41" transform="translate(-110.6 267.04) rotate(-45)"/><rect class="cls-2" x="72.41" y="259.95" width="376.5" height="1.41" transform="translate(-107.97 260.42) rotate(-44.96)"/><rect class="cls-2" x="66.05" y="253.6" width="376.5" height="1.41" transform="translate(-105.34 254.3) rotate(-45)"/><rect class="cls-2" x="59.7" y="247.25" width="376.5" height="1.41" transform="translate(-102.7 248.2) rotate(-45.04)"/><rect class="cls-2" x="53.35" y="240.9" width="376.5" height="1.41" transform="translate(-100.07 241.6) rotate(-45)"/><rect class="cls-2" x="47" y="234.54" width="376.5" height="1.41" transform="translate(-97.44 235.22) rotate(-45)"/><rect class="cls-2" x="40.65" y="228.19" width="376.5" height="1.41" transform="translate(-94.81 228.9) rotate(-45)"/><rect class="cls-2" x="34.29" y="221.84" width="376.5" height="1.41" transform="translate(-92.18 222.54) rotate(-45)"/><rect class="cls-2" x="27.94" y="215.49" width="376.5" height="1.41" transform="translate(-89.55 216.21) rotate(-45)"/><rect class="cls-2" x="21.59" y="209.13" width="376.5" height="1.41" transform="translate(-86.92 209.84) rotate(-45)"/><rect class="cls-2" x="15.24" y="202.78" width="376.5" height="1.41" transform="translate(-84.29 203.28) rotate(-44.96)"/><rect class="cls-2" x="8.88" y="196.43" width="376.5" height="1.41" transform="translate(-81.66 197.13) rotate(-45)"/><rect class="cls-2" x="2.53" y="190.08" width="376.5" height="1.41" transform="translate(-79.02 190.57) rotate(-44.95)"/><rect class="cls-2" x="-3.82" y="183.73" width="376.5" height="1.41" transform="translate(-76.39 184.41) rotate(-45)"/><rect class="cls-2" x="-10.17" y="177.37" width="376.5" height="1.41" transform="translate(-73.76 178.1) rotate(-45)"/><rect class="cls-2" x="-16.53" y="171.02" width="376.5" height="1.41" transform="translate(-71.13 171.74) rotate(-45)"/><rect class="cls-2" x="-22.88" y="164.67" width="376.5" height="1.41" transform="translate(-68.5 165.22) rotate(-44.96)"/><rect class="cls-2" x="-29.23" y="158.32" width="376.5" height="1.41" transform="translate(-65.87 159.02) rotate(-45)"/><rect class="cls-2" x="-35.58" y="151.96" width="376.5" height="1.41" transform="translate(-63.24 152.65) rotate(-45)"/><rect class="cls-2" x="-41.93" y="145.61" width="376.5" height="1.41" transform="translate(-60.61 146.3) rotate(-45)"/><rect class="cls-2" x="-48.29" y="139.26" width="376.5" height="1.41" transform="translate(-57.97 139.95) rotate(-45)"/><rect class="cls-2" x="-54.64" y="132.91" width="376.5" height="1.41" transform="translate(-55.34 133.81) rotate(-45.06)"/></g><polygon class="cls-7" points="80.95 281.76 436.77 321.2 437.59 372.24 79.92 358.43 80.95 281.76"/><polygon class="cls-5" points="152.68 372.97 391.5 398.04 371.3 421.01 390.81 450.96 150.11 421.76 152.68 372.97"/><g class="cls-10"><rect class="cls-2" x="250.27" y="437.82" width="376.5" height="1.41" transform="translate(-181.64 438.52) rotate(-45)"/><rect class="cls-2" x="243.92" y="431.46" width="376.5" height="1.41" transform="translate(-179.01 432.17) rotate(-45)"/><rect class="cls-2" x="237.57" y="425.11" width="376.5" height="1.41" transform="translate(-176.38 425.77) rotate(-45)"/><rect class="cls-2" x="231.21" y="418.76" width="376.5" height="1.41" transform="translate(-173.75 419.42) rotate(-45)"/><rect class="cls-2" x="224.86" y="412.41" width="376.5" height="1.41" transform="translate(-171.12 413.07) rotate(-45)"/><rect class="cls-2" x="218.51" y="406.05" width="376.5" height="1.41" transform="translate(-168.48 406.39) rotate(-44.96)"/><rect class="cls-2" x="212.16" y="399.7" width="376.5" height="1.41" transform="translate(-165.85 400.45) rotate(-45)"/><rect class="cls-2" x="205.8" y="393.35" width="376.5" height="1.41" transform="translate(-163.22 394.45) rotate(-45.04)"/><rect class="cls-2" x="199.45" y="387" width="376.5" height="1.41" transform="translate(-160.59 387.31) rotate(-44.96)"/><rect class="cls-2" x="193.1" y="380.65" width="376.5" height="1.41" transform="translate(-157.96 381.31) rotate(-45)"/><rect class="cls-2" x="186.75" y="374.29" width="376.5" height="1.41" transform="translate(-155.33 374.98) rotate(-45)"/><rect class="cls-2" x="180.39" y="367.94" width="376.5" height="1.41" transform="translate(-152.7 369.03) rotate(-45.04)"/><rect class="cls-2" x="174.04" y="361.59" width="376.5" height="1.41" transform="translate(-150.07 362.32) rotate(-45)"/><rect class="cls-2" x="167.69" y="355.24" width="376.5" height="1.41" transform="translate(-147.44 355.96) rotate(-45)"/><rect class="cls-2" x="161.34" y="348.88" width="376.5" height="1.41" transform="translate(-144.8 349.58) rotate(-45)"/><rect class="cls-2" x="154.99" y="342.53" width="376.5" height="1.41" transform="translate(-142.17 343.59) rotate(-45.04)"/><rect class="cls-2" x="148.63" y="336.18" width="376.5" height="1.41" transform="translate(-139.54 336.88) rotate(-45)"/><rect class="cls-2" x="142.28" y="329.83" width="376.5" height="1.41" transform="translate(-136.91 330.5) rotate(-45)"/><rect class="cls-2" x="135.93" y="323.48" width="376.5" height="1.41" transform="translate(-134.28 324.18) rotate(-45)"/><rect class="cls-2" x="129.58" y="317.12" width="376.5" height="1.41" transform="translate(-131.65 317.54) rotate(-44.96)"/><rect class="cls-2" x="123.22" y="310.77" width="376.5" height="1.41" transform="translate(-129.02 311.51) rotate(-45)"/><rect class="cls-2" x="116.87" y="304.42" width="376.5" height="1.41" transform="translate(-126.39 305.12) rotate(-45)"/><rect class="cls-2" x="110.52" y="298.07" width="376.5" height="1.41" transform="translate(-123.75 298.77) rotate(-45)"/><rect class="cls-2" x="104.17" y="291.71" width="376.5" height="1.41" transform="translate(-121.12 292.71) rotate(-45.04)"/><rect class="cls-2" x="97.82" y="285.36" width="376.5" height="1.41" transform="translate(-118.49 286.07) rotate(-45)"/><rect class="cls-2" x="91.46" y="279.01" width="376.5" height="1.41" transform="translate(-115.86 279.43) rotate(-44.96)"/><rect class="cls-2" x="85.11" y="272.66" width="376.5" height="1.41" transform="translate(-113.23 273.36) rotate(-45)"/><rect class="cls-2" x="78.76" y="266.31" width="376.5" height="1.41" transform="translate(-110.6 267.04) rotate(-45)"/><rect class="cls-2" x="72.41" y="259.95" width="376.5" height="1.41" transform="translate(-107.97 260.42) rotate(-44.96)"/><rect class="cls-2" x="66.05" y="253.6" width="376.5" height="1.41" transform="translate(-105.34 254.3) rotate(-45)"/><rect class="cls-2" x="59.7" y="247.25" width="376.5" height="1.41" transform="translate(-102.7 248.2) rotate(-45.04)"/><rect class="cls-2" x="53.35" y="240.9" width="376.5" height="1.41" transform="translate(-100.07 241.6) rotate(-45)"/><rect class="cls-2" x="47" y="234.54" width="376.5" height="1.41" transform="translate(-97.44 235.22) rotate(-45)"/><rect class="cls-2" x="40.65" y="228.19" width="376.5" height="1.41" transform="translate(-94.81 228.9) rotate(-45)"/><rect class="cls-2" x="34.29" y="221.84" width="376.5" height="1.41" transform="translate(-92.18 222.54) rotate(-45)"/><rect class="cls-2" x="27.94" y="215.49" width="376.5" height="1.41" transform="translate(-89.55 216.21) rotate(-45)"/><rect class="cls-2" x="21.59" y="209.13" width="376.5" height="1.41" transform="translate(-86.92 209.84) rotate(-45)"/><rect class="cls-2" x="15.24" y="202.78" width="376.5" height="1.41" transform="translate(-84.29 203.28) rotate(-44.96)"/><rect class="cls-2" x="8.88" y="196.43" width="376.5" height="1.41" transform="translate(-81.66 197.13) rotate(-45)"/><rect class="cls-2" x="2.53" y="190.08" width="376.5" height="1.41" transform="translate(-79.02 190.57) rotate(-44.95)"/><rect class="cls-2" x="-3.82" y="183.73" width="376.5" height="1.41" transform="translate(-76.39 184.41) rotate(-45)"/><rect class="cls-2" x="-10.17" y="177.37" width="376.5" height="1.41" transform="translate(-73.76 178.1) rotate(-45)"/><rect class="cls-2" x="-16.53" y="171.02" width="376.5" height="1.41" transform="translate(-71.13 171.74) rotate(-45)"/><rect class="cls-2" x="-22.88" y="164.67" width="376.5" height="1.41" transform="translate(-68.5 165.22) rotate(-44.96)"/><rect class="cls-2" x="-29.23" y="158.32" width="376.5" height="1.41" transform="translate(-65.87 159.02) rotate(-45)"/><rect class="cls-2" x="-35.58" y="151.96" width="376.5" height="1.41" transform="translate(-63.24 152.65) rotate(-45)"/><rect class="cls-2" x="-41.93" y="145.61" width="376.5" height="1.41" transform="translate(-60.61 146.3) rotate(-45)"/><rect class="cls-2" x="-48.29" y="139.26" width="376.5" height="1.41" transform="translate(-57.97 139.95) rotate(-45)"/><rect class="cls-2" x="-54.64" y="132.91" width="376.5" height="1.41" transform="translate(-55.34 133.81) rotate(-45.06)"/></g><polygon class="cls-7" points="152.68 372.97 391.5 398.04 371.3 421.01 390.81 450.96 150.11 421.76 152.68 372.97"/><polygon class="cls-11" points="79.92 279.95 506.94 205.22 507 283.77 79.92 358.5 79.92 279.95"/><polygon class="cls-11" points="151.59 189.22 151.59 240.3 436.79 190.74 437.55 139.65 151.59 189.22"/><path class="cls-11" d="M151.59,189.22V240.3l285.19-49.57.76-51.09Z"/><path class="cls-11" d="M151.59,189.22V240.3l285.19-49.57.76-51.09Z"/><polygon class="cls-11" points="150.07 370.7 150.07 421.79 437.56 372.23 436.79 321.14 150.07 370.7"/><path class="cls-12" d="M199.74,210.28a5,5,0,0,0,3.74.7,3.69,3.69,0,0,0,1.78-.72,1.5,1.5,0,0,0,.6-1.16,1.23,1.23,0,0,0-.47-1,7.3,7.3,0,0,0-2.5-.89q-3.19-.79-3.19-3.37a4.15,4.15,0,0,1,1.45-3.2,7.53,7.53,0,0,1,3.83-1.72,9.07,9.07,0,0,1,3.35-.07v2.72a5,5,0,0,0-3.21-.37,3.81,3.81,0,0,0-1.71.69,1.46,1.46,0,0,0-.64,1.16,1.12,1.12,0,0,0,.44.89,6.67,6.67,0,0,0,2.17.82,5.67,5.67,0,0,1,2.79,1.34,3.09,3.09,0,0,1,.76,2.17,4.19,4.19,0,0,1-1.39,3.23,7.69,7.69,0,0,1-3.95,1.72,8,8,0,0,1-3.83-.08Z"/><path class="cls-12" d="M219.25,210.26l-8.06,1.42V198.07l7.74-1.37v2.37l-4.84.85v3.21l4.5-.79v2.36l-4.5.79v3.3l5.16-.91Z"/><path class="cls-12" d="M224.38,195.75v13.61l-2.9.51V196.26Z"/><path class="cls-12" d="M237.21,195.06l-7,10.9,7-1.23v2.37L226.32,209V207.4l7.08-10.87-6.56,1.16v-2.37l10.36-1.83Z"/><path class="cls-12" d="M247.29,205.32l-8.06,1.42V193.13l7.74-1.37v2.37l-4.84.85v3.21l4.5-.79v2.36l-4.5.79v3.3l5.16-.91Z"/><path class="cls-12" d="M264.28,191.08l-3.88.68V203l-2.91.51V192.28l-3.88.68v-2.37l10.67-1.88Z"/><path class="cls-12" d="M277.74,200l-2.9.51v-5.62l-5.8,1v5.62l-2.9.51V188.38l2.9-.51v5.49l5.8-1v-5.49l2.9-.51Z"/><path class="cls-12" d="M289,198l-8.06,1.42V185.78l7.74-1.37v2.37l-4.84.85v3.21l4.5-.79v2.36l-4.5.79v3.3l5.16-.91Z"/><path class="cls-12" d="M306.29,194.43a10.11,10.11,0,0,1-3.88,1.41,5.18,5.18,0,0,1-6.69-5.57,8.63,8.63,0,0,1,7.22-8.6,9,9,0,0,1,3.34-.07v2.8a5.57,5.57,0,0,0-3.13-.26A5.08,5.08,0,0,0,300,186a5.47,5.47,0,0,0-1.2,3.54,3.87,3.87,0,0,0,1.13,3,3.45,3.45,0,0,0,3.07.68,7.54,7.54,0,0,0,3.31-1.46Z"/><path class="cls-12" d="M320.3,192.45l-2.9.51v-5.62l-5.8,1V194l-2.9.51V180.88l2.9-.51v5.49l5.8-1v-5.49l2.9-.51Z"/><path class="cls-12" d="M335.29,189.8l-3.16.56-1-2.94-4.95.87-1,3.3-3.15.55,5-14.49,3.41-.6Zm-4.87-4.5-1.55-4.45a4.77,4.77,0,0,1-.21-1.15h-.08a5.57,5.57,0,0,1-.24,1.19l-1.56,5Z"/><path class="cls-12" d="M349.12,187.37l-3,.52-5.77-7.79a8.13,8.13,0,0,1-.65-1h0a21,21,0,0,1,.08,2.16V189l-2.75.49V175.89l3.16-.56,5.55,7.58q.55.75.68,1h0a12.57,12.57,0,0,1-.09-1.87v-7.76l2.75-.49Z"/><path class="cls-12" d="M360.34,185.39l-8.06,1.42V173.19l7.74-1.37v2.37l-4.84.85v3.21l4.5-.79v2.36l-4.5.79v3.3l5.16-.91Z"/><path class="cls-12" d="M367.08,177.57A8.6,8.6,0,0,1,369,172a7.84,7.84,0,0,1,4.94-2.88,5.24,5.24,0,0,1,4.7,1.11,6,6,0,0,1,1.78,4.68,8.51,8.51,0,0,1-1.85,5.49,7.72,7.72,0,0,1-4.85,2.84,5.43,5.43,0,0,1-4.75-1.08A5.81,5.81,0,0,1,367.08,177.57Zm3-.7a4.52,4.52,0,0,0,1,3.08,2.64,2.64,0,0,0,2.63.8,3.92,3.92,0,0,0,2.65-1.68,5.87,5.87,0,0,0,.95-3.42,4.79,4.79,0,0,0-.92-3.2,2.6,2.6,0,0,0-2.6-.78,4,4,0,0,0-2.69,1.74A6,6,0,0,0,370.13,176.87Z"/><path class="cls-12" d="M390.43,168.84l-4.86.86v3.5l4.47-.79v2.37l-4.47.79v5.37l-2.9.51V167.84l7.76-1.37Z"/><path class="cls-12" d="M94.28,324.87V309l5.64-1a6.36,6.36,0,0,1,4,.28,2.58,2.58,0,0,1,1.4,2.48,3.89,3.89,0,0,1-.87,2.42,5.73,5.73,0,0,1-2.2,1.73v0a3.75,3.75,0,0,1,2.68.76,2.94,2.94,0,0,1,1,2.39,5.08,5.08,0,0,1-1.54,3.71,7.61,7.61,0,0,1-4.2,2Zm3.38-14v3.93l1.61-.28a3.3,3.3,0,0,0,1.83-.88,2.27,2.27,0,0,0,.67-1.67q0-1.83-2.67-1.36Zm0,6.48v4.36l2-.35a3.65,3.65,0,0,0,2-.95,2.41,2.41,0,0,0,.72-1.78,1.53,1.53,0,0,0-.72-1.43,3,3,0,0,0-2-.19Z"/><path class="cls-12" d="M118,320.68l-9.4,1.66V306.45l9-1.59v2.77l-5.65,1v3.74l5.25-.93v2.76l-5.25.93V319l6-1.06Z"/><path class="cls-12" d="M124,303.74v15.88l-3.38.6V304.34Z"/><path class="cls-12" d="M141.81,316.49l-3.47.61L131.61,308a9.49,9.49,0,0,1-.76-1.16h-.05a24.8,24.8,0,0,1,.09,2.52v9l-3.21.57V303.09l3.69-.65,6.48,8.84q.64.88.79,1.12h.05a14.71,14.71,0,0,1-.1-2.18v-9.05l3.21-.57Z"/><path class="cls-12" d="M158.41,312.49a13.14,13.14,0,0,1-5.72,2.35q-3.79.67-6-1.08t-2.19-5.45a9.64,9.64,0,0,1,2.42-6.53,10.57,10.57,0,0,1,6.36-3.48,12,12,0,0,1,4.44-.06v3.21a8.15,8.15,0,0,0-4.51-.28,6,6,0,0,0-3.72,2.15,6.44,6.44,0,0,0-1.43,4.2,4.71,4.71,0,0,0,1.29,3.66,3.94,3.94,0,0,0,3.51.78,5.65,5.65,0,0,0,2.16-.79v-3.26l-3.21.57v-2.72l6.59-1.16Z"/><path class="cls-12" d="M178.78,296.85l-4.53.8v13.12l-3.39.6V298.25l-4.52.8v-2.77l12.45-2.19Z"/><path class="cls-12" d="M194.49,307.2l-3.38.6v-6.55l-6.77,1.19V309l-3.38.6V293.7l3.38-.6v6.41l6.77-1.19v-6.41l3.38-.6Z"/><path class="cls-12" d="M207.61,304.88l-9.4,1.66V290.66l9-1.59v2.77l-5.65,1v3.74l5.25-.93v2.76l-5.25.93v3.84l6-1.06Z"/><path class="cls-12" d="M253,289.15a10,10,0,0,1,2.18-6.46,9.14,9.14,0,0,1,5.76-3.36,6.11,6.11,0,0,1,5.48,1.3,7,7,0,0,1,2.08,5.46,9.92,9.92,0,0,1-2.16,6.4,9,9,0,0,1-5.65,3.31,6.33,6.33,0,0,1-5.55-1.26A6.78,6.78,0,0,1,253,289.15Zm3.56-.81a5.27,5.27,0,0,0,1.12,3.59,3.09,3.09,0,0,0,3.07.93,4.57,4.57,0,0,0,3.1-2,6.85,6.85,0,0,0,1.11-4,5.59,5.59,0,0,0-1.08-3.73,3,3,0,0,0-3-.91,4.62,4.62,0,0,0-3.13,2A7,7,0,0,0,256.56,288.34Z"/><path class="cls-12" d="M285.3,291.18l-3.47.61-6.73-9.09a9.49,9.49,0,0,1-.76-1.16h-.05a24.8,24.8,0,0,1,.09,2.52v9l-3.21.57V277.79l3.69-.65,6.48,8.84q.64.88.79,1.12h.05a14.71,14.71,0,0,1-.1-2.18v-9.05l3.21-.57Z"/><path class="cls-12" d="M298.39,288.88l-9.4,1.66V274.65l9-1.59v2.77l-5.65,1v3.74l5.25-.93v2.76l-5.25.93v3.84l6-1.06Z"/><path class="cls-12" d="M318.22,272.27l-4.53.8v13.12l-3.39.6V273.66l-4.52.8v-2.77l12.45-2.19Z"/><path class="cls-12" d="M318.53,277.59a10,10,0,0,1,2.18-6.46,9.14,9.14,0,0,1,5.76-3.36,6.11,6.11,0,0,1,5.48,1.3,7,7,0,0,1,2.08,5.46,9.92,9.92,0,0,1-2.16,6.4,9,9,0,0,1-5.65,3.31,6.33,6.33,0,0,1-5.55-1.26A6.78,6.78,0,0,1,318.53,277.59Zm3.56-.81a5.27,5.27,0,0,0,1.12,3.59,3.09,3.09,0,0,0,3.07.93,4.57,4.57,0,0,0,3.1-2,6.85,6.85,0,0,0,1.11-4,5.59,5.59,0,0,0-1.08-3.73,3,3,0,0,0-3-.91,4.62,4.62,0,0,0-3.13,2A7,7,0,0,0,322.09,276.78Z"/><path class="cls-12" d="M354.3,278.44a11.79,11.79,0,0,1-4.52,1.65,6,6,0,0,1-7.8-6.5,10.07,10.07,0,0,1,8.43-10,10.5,10.5,0,0,1,3.9-.08v3.27a6.5,6.5,0,0,0-3.65-.3,5.92,5.92,0,0,0-3.72,2.14,6.39,6.39,0,0,0-1.39,4.13,4.51,4.51,0,0,0,1.32,3.53,4,4,0,0,0,3.58.79,8.79,8.79,0,0,0,3.87-1.71Z"/><path class="cls-12" d="M370.21,276.21l-3.9.69-2.49-3.69a4.81,4.81,0,0,0-1.26-1.43,1.52,1.52,0,0,0-1-.18l-1,.18v6.15l-3.38.6V262.64l5.57-1q5.67-1,5.67,3.31a4.94,4.94,0,0,1-.95,2.95,6.42,6.42,0,0,1-2.61,2.09v0a4.4,4.4,0,0,1,2.43,2Zm-9.72-11.6v4.57l1.66-.29a3.2,3.2,0,0,0,1.91-1,2.73,2.73,0,0,0,.72-1.85q0-2.15-2.57-1.7Z"/><path class="cls-12" d="M381.17,274.28l-9.4,1.66V260.05l9-1.59v2.77l-5.65,1V266l5.25-.93v2.76l-5.25.93v3.84l6-1.06Z"/><path class="cls-12" d="M397.86,271.34l-3.69.65L393,268.56l-5.77,1L386,273.42l-3.67.65,5.81-16.91,4-.7Zm-5.68-5.25-1.8-5.19a5.55,5.55,0,0,1-.25-1.34l-.09,0a6.42,6.42,0,0,1-.28,1.39l-1.81,5.87Z"/><path class="cls-12" d="M409.24,256.22l-4.53.8v13.12l-3.39.6V257.61l-4.52.8v-2.77l12.45-2.19Z"/><path class="cls-12" d="M420.82,267.29l-9.4,1.66V253.06l9-1.59v2.77l-5.65,1V259l5.25-.93v2.76l-5.25.93v3.84l6-1.06Z"/><path class="cls-12" d="M428.95,261.86a5.84,5.84,0,0,0,4.36.82,4.31,4.31,0,0,0,2.08-.84,1.75,1.75,0,0,0,.7-1.35,1.44,1.44,0,0,0-.55-1.12,8.51,8.51,0,0,0-2.92-1q-3.72-.92-3.72-3.94a4.84,4.84,0,0,1,1.69-3.74,8.78,8.78,0,0,1,4.47-2,10.59,10.59,0,0,1,3.91-.08v3.18a5.88,5.88,0,0,0-3.74-.43,4.44,4.44,0,0,0-2,.81,1.7,1.7,0,0,0-.75,1.36,1.31,1.31,0,0,0,.51,1,7.78,7.78,0,0,0,2.53,1,6.61,6.61,0,0,1,3.25,1.57,3.6,3.6,0,0,1,.89,2.53,4.9,4.9,0,0,1-1.62,3.77,9,9,0,0,1-4.6,2,9.31,9.31,0,0,1-4.47-.09Z"/><path class="cls-12" d="M453.27,248.45l-4.53.8v13.12l-3.39.6V249.85l-4.52.8v-2.77l12.45-2.19Z"/><path class="cls-12" d="M453.59,253.78a10,10,0,0,1,2.18-6.46,9.14,9.14,0,0,1,5.76-3.36,6.11,6.11,0,0,1,5.48,1.3,7,7,0,0,1,2.08,5.46,9.92,9.92,0,0,1-2.16,6.4,9,9,0,0,1-5.65,3.31,6.33,6.33,0,0,1-5.55-1.26A6.78,6.78,0,0,1,453.59,253.78Zm3.56-.81a5.27,5.27,0,0,0,1.12,3.59,3.09,3.09,0,0,0,3.07.93,4.57,4.57,0,0,0,3.1-2,6.85,6.85,0,0,0,1.11-4,5.59,5.59,0,0,0-1.08-3.73,3,3,0,0,0-3-.91,4.62,4.62,0,0,0-3.13,2A7,7,0,0,0,457.14,253Z"/><path class="cls-12" d="M484.87,256l-3.9.69L478.48,253a4.81,4.81,0,0,0-1.26-1.43,1.52,1.52,0,0,0-1-.18l-1,.18v6.15l-3.38.6V242.42l5.57-1q5.67-1,5.67,3.31a4.94,4.94,0,0,1-.95,2.95,6.42,6.42,0,0,1-2.61,2.09v0a4.4,4.4,0,0,1,2.43,2Zm-9.72-11.6V249l1.66-.29a3.2,3.2,0,0,0,1.91-1,2.73,2.73,0,0,0,.72-1.85q0-2.15-2.57-1.7Z"/><path class="cls-12" d="M495.83,254.06l-9.4,1.66V239.84l9-1.59V241l-5.65,1v3.74l5.25-.93v2.76l-5.25.93v3.84l6-1.06Z"/><path class="cls-12" d="M226.83,378.85l-4.86.86v3.5l4.47-.79v2.37l-4.47.79V391l-2.9.51V377.85l7.76-1.37Z"/><path class="cls-12" d="M228.26,383.21a8.6,8.6,0,0,1,1.87-5.54,7.84,7.84,0,0,1,4.94-2.88,5.24,5.24,0,0,1,4.7,1.11,6,6,0,0,1,1.78,4.68,8.51,8.51,0,0,1-1.85,5.49,7.72,7.72,0,0,1-4.85,2.84,5.43,5.43,0,0,1-4.75-1.08A5.81,5.81,0,0,1,228.26,383.21Zm3-.7a4.52,4.52,0,0,0,1,3.08,2.64,2.64,0,0,0,2.63.8,3.92,3.92,0,0,0,2.65-1.68,5.87,5.87,0,0,0,.95-3.42,4.79,4.79,0,0,0-.92-3.2,2.6,2.6,0,0,0-2.6-.78,4,4,0,0,0-2.69,1.74A6,6,0,0,0,231.31,382.52Z"/><path class="cls-12" d="M255.08,385.11l-3.34.59-2.14-3.17a4.11,4.11,0,0,0-1.08-1.22,1.3,1.3,0,0,0-.9-.16l-.88.15v5.27l-2.9.51V373.48l4.77-.84q4.86-.86,4.86,2.83a4.24,4.24,0,0,1-.81,2.53,5.51,5.51,0,0,1-2.24,1.79v0a3.77,3.77,0,0,1,2.08,1.71Zm-8.33-9.94v3.92l1.42-.25a2.74,2.74,0,0,0,1.64-.88,2.34,2.34,0,0,0,.62-1.59q0-1.85-2.21-1.46Z"/><path class="cls-12" d="M271.17,371l-3.88.68V383l-2.91.51V372.23l-3.88.68v-2.37l10.67-1.88Z"/><path class="cls-12" d="M284.64,379.9l-2.9.51V374.8l-5.8,1v5.62l-2.9.51V368.33l2.9-.51v5.49l5.8-1V366.8l2.9-.51Z"/><path class="cls-12" d="M290.71,365.22v13.61l-2.9.51V365.73Z"/><path class="cls-12" d="M293.23,375a5,5,0,0,0,3.74.7,3.69,3.69,0,0,0,1.78-.72,1.5,1.5,0,0,0,.6-1.16,1.23,1.23,0,0,0-.47-1,7.3,7.3,0,0,0-2.5-.89q-3.19-.79-3.19-3.37a4.15,4.15,0,0,1,1.45-3.2,7.53,7.53,0,0,1,3.83-1.72,9.07,9.07,0,0,1,3.35-.07v2.72a5,5,0,0,0-3.21-.37,3.81,3.81,0,0,0-1.71.69,1.46,1.46,0,0,0-.64,1.16,1.12,1.12,0,0,0,.44.89,6.67,6.67,0,0,0,2.17.82,5.67,5.67,0,0,1,2.79,1.34,3.09,3.09,0,0,1,.76,2.17,4.19,4.19,0,0,1-1.39,3.23,7.69,7.69,0,0,1-3.95,1.72,8,8,0,0,1-3.83-.08Z"/><path class="cls-12" d="M312.95,370.16v4.75l-2.9.51V361.81l4.68-.83q5.08-.9,5.08,3.41a5,5,0,0,1-1.53,3.62,6.71,6.71,0,0,1-3.84,1.89Zm0-6.62v4.39l1.26-.22q2.56-.45,2.56-2.67t-2.53-1.72Z"/><path class="cls-12" d="M329.87,371.93l-8,1.41V359.72l2.9-.51v11.24l5.09-.9Z"/><path class="cls-12" d="M344,369.44l-3.16.56-1-2.94-4.95.87-1,3.3-3.15.55,5-14.49,3.41-.6Zm-4.87-4.5-1.55-4.45a4.77,4.77,0,0,1-.21-1.15h-.08a5.57,5.57,0,0,1-.24,1.19l-1.56,5Z"/><path class="cls-12" d="M355.13,367a10.11,10.11,0,0,1-3.88,1.41,5.18,5.18,0,0,1-6.69-5.57,8.63,8.63,0,0,1,7.22-8.6,9,9,0,0,1,3.34-.07V357a5.57,5.57,0,0,0-3.13-.26,5.08,5.08,0,0,0-3.19,1.84,5.47,5.47,0,0,0-1.2,3.54,3.87,3.87,0,0,0,1.13,3,3.45,3.45,0,0,0,3.07.68,7.54,7.54,0,0,0,3.31-1.46Z"/><path class="cls-12" d="M365.59,365.63,357.53,367V353.43l7.74-1.37v2.37l-4.84.85v3.21l4.5-.79v2.36l-4.5.79v3.3l5.16-.91Z"/><path class="cls-12" d="M367.72,364a1.64,1.64,0,0,1,.48-1.17,2.1,2.1,0,0,1,1.19-.63,1.49,1.49,0,0,1,1.18.22,1.16,1.16,0,0,1,.47,1,1.71,1.71,0,0,1-.46,1.15,1.86,1.86,0,0,1-1.1.63,1.62,1.62,0,0,1-1.29-.21A1.16,1.16,0,0,1,367.72,364Zm3.15-12.87-.35,9.48-2.3.41-.33-9.36Z"/><path class="cls-13" d="M226.9,270v40.71l-6.2,1.09v-34a33.63,33.63,0,0,1-4.43,3.85,25.24,25.24,0,0,1-4.74,2.81v-5.84a46.77,46.77,0,0,0,11.57-8Z"/><path class="cls-13" d="M232.83,285.18a4.85,4.85,0,0,0,3.58.61q2.63-.46,2.63-2.26a1.39,1.39,0,0,0-.29-.89A2.07,2.07,0,0,0,238,282a18.13,18.13,0,0,0-1.94-.66,5.7,5.7,0,0,1-2.49-1.29,2.72,2.72,0,0,1-.71-1.94,3.81,3.81,0,0,1,1.35-2.93,6.76,6.76,0,0,1,3.45-1.59,6.91,6.91,0,0,1,3,0v2.1a4.75,4.75,0,0,0-3-.31,4,4,0,0,0-1.89.8,1.79,1.79,0,0,0-.72,1.42,1.31,1.31,0,0,0,.52,1.13,8.37,8.37,0,0,0,2.21.89,6.18,6.18,0,0,1,2.72,1.37,2.79,2.79,0,0,1,.75,2,3.84,3.84,0,0,1-1.3,3,7.05,7.05,0,0,1-3.59,1.58,9.63,9.63,0,0,1-1.88.13,4.31,4.31,0,0,1-1.59-.27Z"/><path class="cls-13" d="M252,273.08l-3.8.67v11.46l-2.06.36V274.11l-3.79.67V273l9.64-1.7Z"/></g></g></svg>