<svg xmlns="http://www.w3.org/2000/svg" viewBox="0 0 126.64 64.63"><defs><style>.cls-1{isolation:isolate;}.cls-2,.cls-4{fill:#7f7993;}.cls-3{fill:#ecf6fd;}.cls-3,.cls-4{mix-blend-mode:multiply;}</style></defs><title>Icon_refreshingright</title><g class="cls-1"><g id="Layer_2" data-name="Layer 2"><g id="Layer_1-2" data-name="Layer 1"><path class="cls-2" d="M48,57.51H5a2.8,2.8,0,0,1-2.8-2.8V2.8A2.8,2.8,0,0,1,5,0H48A11.68,11.68,0,0,1,59.69,11.67V45.84A11.68,11.68,0,0,1,48,57.51ZM5,1.34A1.46,1.46,0,0,0,3.52,2.8V54.71A1.46,1.46,0,0,0,5,56.17H48A10.34,10.34,0,0,0,58.35,45.84V11.67A10.34,10.34,0,0,0,48,1.34Z"/><path class="cls-2" d="M2.85,20.71H2.43A2.43,2.43,0,0,1,0,18.28V12.12A2.43,2.43,0,0,1,2.43,9.68h.42a.67.67,0,0,1,.67.67V20A.67.67,0,0,1,2.85,20.71ZM2.43,11a1.09,1.09,0,0,0-1.09,1.09v6.16a1.09,1.09,0,0,0,1.09,1.09H2.18V11Z"/><path class="cls-2" d="M2.85,47.83H2.43A2.43,2.43,0,0,1,0,45.4V39.23A2.43,2.43,0,0,1,2.43,36.8h.42a.67.67,0,0,1,.67.67v9.68A.67.67,0,0,1,2.85,47.83Zm-.42-9.68a1.09,1.09,0,0,0-1.09,1.09V45.4a1.09,1.09,0,0,0,1.09,1.09H2.18V38.14Z"/><path class="cls-2" d="M126.64,61H104.3A13.59,13.59,0,0,1,90.72,47.4V37.23a3.37,3.37,0,0,0-3.37-3.37H59a.67.67,0,0,1-.67-.67V24.32a.67.67,0,0,1,.67-.67H87.35a13.6,13.6,0,0,1,13.58,13.58V47.4a3.37,3.37,0,0,0,3.37,3.37h22.34v1.34H104.3a4.72,4.72,0,0,1-4.71-4.71V37.23A12.25,12.25,0,0,0,87.35,25H59.69v7.53H87.35a4.72,4.72,0,0,1,4.71,4.71V47.4A12.25,12.25,0,0,0,104.3,59.64h22.34Z"/><path class="cls-2" d="M20.94,64.63H2.4a.67.67,0,1,1,0-1.34H20.94a.67.67,0,1,1,0,1.34Z"/><path class="cls-3" d="M126.64,52.11v7.53h-23.2a12.4,12.4,0,0,1-8-3.76c-3.73-3.73-3.42-7.42-3.42-7.42V37a5.78,5.78,0,0,0-1.37-3,6.52,6.52,0,0,0-3.08-1.47H59.69V25H88a11.82,11.82,0,0,1,8.16,3.76c3.94,3.94,3.4,7.75,3.4,7.75l0,10.89a4.72,4.72,0,0,0,4.71,4.71Z"/><rect class="cls-4" x="1.04" y="10.76" width="1.4" height="8.6"/><rect class="cls-4" x="1.04" y="38.08" width="1.14" height="8.41"/></g></g></g></svg>