<svg xmlns="http://www.w3.org/2000/svg" viewBox="0 0 149.64 67.69"><defs><style>.cls-1{isolation:isolate;}.cls-2{fill:#7f7993;}.cls-3{fill:#ecf6fd;mix-blend-mode:multiply;}</style></defs><title>Icon_refreshingleft</title><g class="cls-1"><g id="Layer_2" data-name="Layer 2"><g id="Layer_1-2" data-name="Layer 1"><path class="cls-2" d="M66.95,52.56V18.39A11.68,11.68,0,0,1,78.62,6.72h43a2.8,2.8,0,0,1,2.8,2.8V61.43a2.8,2.8,0,0,1-2.8,2.8h-43A11.68,11.68,0,0,1,66.95,52.56ZM78.62,8.06A10.34,10.34,0,0,0,68.29,18.39V52.56A10.34,10.34,0,0,0,78.62,62.89h43a1.46,1.46,0,0,0,1.46-1.46V9.52a1.46,1.46,0,0,0-1.46-1.46Z"/><path class="cls-2" d="M123.12,26.76V17.07a.67.67,0,0,1,.67-.67h23.42a2.43,2.43,0,0,1,2.43,2.43V25a2.43,2.43,0,0,1-2.43,2.43H123.79A.67.67,0,0,1,123.12,26.76Zm1.34-9v8.34h22.75A1.09,1.09,0,0,0,148.3,25V18.83a1.09,1.09,0,0,0-1.09-1.09Z"/><path class="cls-2" d="M123.12,53.87V44.19a.67.67,0,0,1,.67-.67h23.42a2.43,2.43,0,0,1,2.43,2.43v6.16a2.43,2.43,0,0,1-2.43,2.43H123.79A.67.67,0,0,1,123.12,53.87Zm1.34-9V53.2h22.75a1.09,1.09,0,0,0,1.09-1.09V45.95a1.09,1.09,0,0,0-1.09-1.09Z"/><path class="cls-2" d="M0,66.35H22.34A12.25,12.25,0,0,0,34.58,54.12V43.95a4.72,4.72,0,0,1,4.71-4.71H66.95V31.71H39.29A12.25,12.25,0,0,0,27.05,43.95V54.11a4.72,4.72,0,0,1-4.71,4.71H0V57.48H22.34a3.37,3.37,0,0,0,3.37-3.37V43.95A13.6,13.6,0,0,1,39.29,30.37H67.62a.67.67,0,0,1,.67.67v8.87a.67.67,0,0,1-.67.67H39.29a3.37,3.37,0,0,0-3.37,3.37V54.12A13.59,13.59,0,0,1,22.34,67.69H0Z"/><path class="cls-2" d="M105.7,1.34h18.53a.67.67,0,1,0,0-1.34H105.7a.67.67,0,1,0,0,1.34Z"/><path class="cls-3" d="M0,58.83v7.53H23.2a12.4,12.4,0,0,0,8-3.76c3.73-3.73,3.42-7.42,3.42-7.42V43.67a5.78,5.78,0,0,1,1.38-3A6.52,6.52,0,0,1,39,39.23H66.95V31.71H38.64a11.82,11.82,0,0,0-8.16,3.76c-3.94,3.94-3.4,7.75-3.4,7.75l0,10.89a5.41,5.41,0,0,1-1.38,3.33,5.41,5.41,0,0,1-3.33,1.38Z"/><rect class="cls-3" x="123.76" y="16.92" width="24.75" height="9.38"/><rect class="cls-3" x="124.46" y="44.86" width="24.05" height="8.68"/></g></g></g></svg>