<svg xmlns="http://www.w3.org/2000/svg" xmlns:xlink="http://www.w3.org/1999/xlink" viewBox="0 0 120 120"><defs><style>.cls-1{fill:url(#linear-gradient);}.cls-2{fill:#f1f2f2;}.cls-3{fill:none;}</style><linearGradient id="linear-gradient" x1="60" y1="89.02" x2="60" y2="30.98" gradientUnits="userSpaceOnUse"><stop offset="0" stop-color="#108ee9"/><stop offset="1" stop-color="#3ea9f5"/></linearGradient></defs><title>Logo vector</title><g id="Layer_2" data-name="Layer 2"><g id="Layer_1-2" data-name="Layer 1"><circle class="cls-1" cx="60" cy="60" r="29.02"/><path class="cls-2" d="M60,118.48a.75.75,0,0,1-.37-.1l-50-28.87a.75.75,0,0,1-.37-.65V31.13a.75.75,0,0,1,.38-.65l50-28.87a.75.75,0,0,1,.75,0l50,28.87a.75.75,0,0,1,.38.65V88.87a.75.75,0,0,1-.37.65l-50,28.87A.75.75,0,0,1,60,118.48ZM10.75,88.43,60,116.87l49.25-28.43V31.56L60,3.13,10.75,31.56Zm0,.43h0Z"/><path class="cls-2" d="M60,118.49a.75.75,0,0,1-.75-.75V60.43L9.63,31.78a.75.75,0,1,1,.75-1.3l50,28.87a.75.75,0,0,1,.38.65v57.73A.75.75,0,0,1,60,118.49Z"/><path class="cls-2" d="M60,60.75a.75.75,0,0,1-.38-1.4l50-28.87a.75.75,0,1,1,.75,1.3l-50,28.87A.75.75,0,0,1,60,60.75Z"/><path class="cls-2" d="M110,89.62H10a.75.75,0,0,1-.65-1.12l50-86.6a.78.78,0,0,1,1.3,0l50,86.6a.75.75,0,0,1-.65,1.13Zm-98.7-1.5h97.4L60,3.76Z"/><path class="cls-2" d="M60,89.31A29.31,29.31,0,1,1,89.31,60,29.34,29.34,0,0,1,60,89.31Zm0-57.12A27.81,27.81,0,1,0,87.81,60,27.84,27.84,0,0,0,60,32.19Z"/><rect class="cls-3" width="120" height="120"/></g></g></svg>