<svg xmlns="http://www.w3.org/2000/svg" viewBox="0 0 549.97 181.41"><defs><style>.cls-1{opacity:0.5;}.cls-2{fill:#ecf6fd;}</style></defs><title>Wallet_bg</title><g id="Layer_2" data-name="Layer 2"><g id="Layer_1-2" data-name="Layer 1"><g class="cls-1"><polygon class="cls-2" points="485.94 8.88 315.89 180.26 300.54 180.32 478.23 1.24 479.46 0 494.75 0 493.58 1.18 485.94 8.88"/><polygon class="cls-2" points="250.28 180.51 234.93 180.57 63.55 10.53 55.85 2.88 52.95 0 68.36 0 71.2 2.82 250.28 180.51"/><polygon class="cls-2" points="114.71 0 130.12 0 275.27 144.02 418.18 0 433.47 0 275.33 159.37 114.71 0"/><polygon class="cls-2" points="516.63 8.76 508.99 16.47 501.35 24.17 346.59 180.14 331.24 180.2 493.64 16.53 501.29 8.82 508.93 1.12 510.04 0 525.33 0 524.28 1.06 516.63 8.76"/><polygon class="cls-2" points="48.2 10.58 219.58 180.63 204.23 180.69 48.27 25.93 40.55 18.29 32.85 10.64 25.15 3 22.12 0 37.53 0 40.5 2.94 48.2 10.58"/><polygon class="cls-2" points="265.63 180.45 83.76 0 99.31 0 275.39 174.72 448.76 0 464.17 0 285.19 180.38 265.63 180.45"/><polygon class="cls-2" points="17.5 10.7 25.21 18.35 32.91 25.99 188.88 180.75 173.53 180.81 32.98 41.34 25.27 33.7 17.56 26.05 2.16 10.76 0 8.62 0 0 6.72 0 9.8 3.06 17.5 10.7"/><polygon class="cls-2" points="539.69 16.35 532.04 24.05 524.4 31.76 516.75 39.46 377.29 180.02 361.94 180.08 509.05 31.82 516.69 24.11 524.34 16.41 531.98 8.7 539.63 1 540.62 0 549.97 0 549.97 5.99 547.33 8.64 539.69 16.35"/><polygon class="cls-2" points="145.53 0 160.93 0 275.15 113.33 387.6 0 402.89 0 275.21 128.68 145.53 0"/><polygon class="cls-2" points="9.92 33.76 17.62 41.4 158.19 180.87 142.84 180.93 17.69 56.76 9.98 49.11 2.27 41.46 0 39.2 0 23.91 2.21 26.11 9.92 33.76"/><polygon class="cls-2" points="484.73 179.6 549.97 113.85 549.97 129.26 500.08 179.54 484.73 179.6"/><polygon class="cls-2" points="50.74 181.29 0 130.94 0 115.65 66.09 181.23 50.74 181.29"/><polygon class="cls-2" points="81.44 181.17 0 100.36 0 85.07 96.79 181.11 81.44 181.17"/><polygon class="cls-2" points="454.03 179.72 549.97 83.03 549.97 98.44 469.38 179.66 454.03 179.72"/><polygon class="cls-2" points="20.05 181.41 0 161.52 0 146.23 35.4 181.35 20.05 181.41"/><polygon class="cls-2" points="515.42 179.48 549.97 144.67 549.97 160.08 530.78 179.42 515.42 179.48"/><polygon class="cls-2" points="539.81 47.05 532.16 54.75 407.98 179.9 392.63 179.96 524.46 47.11 532.1 39.4 539.75 31.69 547.39 23.99 549.97 21.4 549.97 36.81 547.46 39.34 539.81 47.05"/><polygon class="cls-2" points="207.16 0 222.57 0 274.91 51.94 326.44 0 341.73 0 274.97 67.28 207.16 0"/><polygon class="cls-2" points="127.49 180.99 112.14 181.05 2.4 72.17 0 69.78 0 54.49 2.33 56.81 127.49 180.99"/><polygon class="cls-2" points="237.98 0 253.39 0 274.79 21.23 295.86 0 311.15 0 274.85 36.58 237.98 0"/><polygon class="cls-2" points="268.8 0 280.57 0 274.73 5.89 268.8 0"/><polygon class="cls-2" points="176.34 0 191.75 0 275.03 82.63 357.02 0 372.31 0 275.09 97.98 176.34 0"/><polygon class="cls-2" points="438.68 179.78 423.33 179.84 539.87 62.4 549.97 52.22 549.97 67.62 547.57 70.04 438.68 179.78"/></g></g></g></svg>